<?xml version="1.0" encoding="utf-8"?>
<!-- Generator: Adobe Illustrator 23.0.1, SVG Export Plug-In . SVG Version: 6.00 Build 0)  -->
<svg version="1.1" id="Layer_1" xmlns:amcharts="http://amcharts.com/ammap"
	 xmlns="http://www.w3.org/2000/svg" xmlns:xlink="http://www.w3.org/1999/xlink" x="0px" y="0px" viewBox="0 0 1920 1080"
	 style="enable-background:new 0 0 1920 1080;" xml:space="preserve">
<style type="text/css">
	.st0{fill:#CCCCCC;stroke:#FFFFFF;stroke-width:0.5;}
</style>
<defs>
	
	
		<amcharts:ammap  bottomLatitude="-55.907355" leftLongitude="-109.449403" projection="mercator" rightLongitude="-66.416233" topLatitude="-17.500036">
		</amcharts:ammap>
</defs>
<g>
	<path id="CL-AI" class="st0" d="M242.9,473l0.3,0l0.5-1l-0.2-0.4l-1-0.2l-0.4,0.3l-0.4,0.1l-1.7-0.7l-0.9-0.9l-0.8-0.7l-1.3-0.9
		l-0.5-0.2l-0.4,0.1l-0.5,0.5l-0.3,0.4l-0.6,0.1l-0.8-0.1l-0.4-0.1l-0.3-0.2l-0.1-0.5l0.2-1l0.4-0.1l1,0l0.3-0.1l0.6-0.8l-1.1-1.5
		l-0.5-0.9l0.1-0.7l0.4-0.5l0.5-0.2l0.3,0l1,0.2h0.5l1.5-0.5l3.3-1.6l0.9-0.7l2-1.6l0.7-1.2l0.5-1.1l1.4-3.3l0.1-1.9l-0.9,0.7
		l-1.3,0.8l-1.7-1.1l-1.3-1v-0.6l-1.5-0.6l-1.1-0.3l-0.5-0.1l-0.7-0.1l-0.5-0.2l-1.6-1.5l-0.1-0.6l0.2-0.6l1.1-0.9l1.2-0.9l0-0.8
		l0.6-1l1.4-2.4l0.4,0l0.7-0.2l1.7-0.5l-0.1-0.5l0,0l1.1,0l0.3,0.2l1,0.2l3.2,0.5l0.2-0.8l0.5-0.7l0.7-0.6l0.5-0.3l0.8,0.3l0.1,0.8
		l1.3,1.8l0.3,0.1l0.7,0.1l0.5,0.3l0.5,0.6l0.3,0.5l0.1,0.8l2.3-0.2l0.2-0.8l2.3-1l0.6,0l1.2,0.5l0,0l0.8,1l0,0.4l-0.2,0.4l-1.5,2
		l-0.5,0.5l-0.6,1.5l0.3,0.5l0.1,0.5l-0.1,2.2l-0.8,0.5l-0.2,0.4l0.4,0.5l0.8,0.2l2.5,0h1.3l1.1-0.1l1.3,0l3.4,0.6l0.6,0.4l0.9,1.7
		l-0.2,0.7l-0.4,0.4l-0.7,0.1l-0.7,1.4l0.1,0.5l0.1,0.6l-0.1,0.6l-0.9,1l-0.5,0.1h-0.6l-0.5-0.1l-0.4-0.2l-0.8-0.5l-0.5-0.3
		l-0.3-0.1h-0.4l-0.6,0.2l-0.9,0.4l-0.3,0.1l-0.4,0.1l-0.3-0.1l-0.3-0.1l-0.3-0.1l-0.9-0.2l-0.4,0.2l-0.3,0.4l-0.5,0.1l-1.8-0.2
		l-0.4-0.1l-0.3-0.1l-0.4-0.2l-0.5-0.1l-0.5,0.3l-0.1,0.4l0.2,2.3l2.2,0.4l2.1,0.2l1.1,0.1l2.6,0.8l0.6,0.5l0.9,1.5l2.8,3.1l0.5,1.5
		l-2.8,3.5l-2.3,0.9l-0.4,0l-0.3,0l-0.4,0.1l-0.7,0.2l-0.6,0.4l-0.5,2l-0.2,1.5l0.6,2.4l0.5,0.3l0.5,0.1l0.7,0.3l0.3,0.4l0.4,1.5
		l-0.6,0.4l-0.1,0l-0.3,0.3l-0.6,0.6l-0.3,0.5l-0.3,0.6l-0.4,0.4l-0.4,0.2l-0.5,0.1l-0.4,0l-0.8,0.3l1.1,1.1l0.6,0.2l0.6,0.2
		l0.3,0.5l0.1,0.5l0.3,3.3l0.6,1.2l0.3,1l0.1,2.4l-0.1,0.6l-0.2,0.4l-2.1,1.7l-0.6,0.2l-1.1,0.1l-0.4,0.3l-0.6,4.5l1.4,1.7l0.5,0.5
		l0.2,0.7l-0.3,1l-0.2,0.3l-2.2,0.9l-1.1,1.6l-1.3,1.2l-0.6,0.2l-0.6-0.2l-0.4,0l-0.6,0.2l-0.3,0.1l-0.4,0.2l-0.2,0.3l-0.2,0.6
		l0.3,0.3l0.6,0.3l-0.3,1.9l-0.2,0.5l-0.2,0.4l-0.9,1.2l-0.4,0.6l-0.5,0.9l-1.3,3.2l0.1,0.5l0.3,0.4l0.6,0.6l0.5,0.3l0.7,0.2
		l1.4,1.5l0.4,2.4l0.1,3.3l-2.2,1.2l-1.1,0.4l-1.1,0.5l-0.3,0.2l-0.3,0.3l-0.1,0.5l0.4,1.5l0.1,0.5l0.2,1.4l0.2,1.7v1l-0.2,0.5
		l-0.4,0.5l-2,1.7l-0.5,0.3l-0.3,0.2l-0.4,0.2l-0.5,0.2l-0.8,0.1l-0.7,0l-0.3,0.1l-0.6,0.2l-0.5,0.3l-0.4,0.4l-1.2,1.5l-1.6,3.3
		l0,0.5l0.1,0.2l0,0l-0.3-0.2l-4.9-3.6l-4-2.9l-5.7-4.3l0,0l0-0.2l-0.8-0.4l-0.9-0.2l-0.5,0l-0.6,0.2l-0.3,0.1l-0.4,0.1l-0.6,0
		l-1-1.1l-0.4-1.4l0.7-0.9l1.6-1.5l0.9-0.5l0.9,0.4l1.7,1.1l0.3-0.3l0.1-2.6l-1.5-0.4l-0.4-0.5l-0.3-0.3l-0.4-0.1l-0.9-0.1l0.4-0.4
		l1.5-0.3l-2.4-0.8l-2.2-1.7l-1.5-1.5l-1.6-1l-0.6,0l-0.4-0.2l-0.2-1l0.4-0.6l1.7-0.9l1.9,0.7l1.1,0.7l0.3,0.5l0.2,0.4l0.3,0.8
		l0.3,1.8l1,0.9l0.5-0.1l-1.3-2.7l-1-1.6l-0.1-0.4l0.4-0.2l1.7-0.1l2,0.1l0.4,0.3l0.5,0.5l0.9,0.3l1.7,0l1.4-0.4l3,2.3l0.1,1
		l0.6,1.3l0.2-0.8l0.8-0.7l0.8,0.1l0.4,0.1l0.4,0.2l0.7,0l0.8-0.6l0.3-0.3l0.1-0.6l0-0.7l-0.2-0.5l-0.1,1.1l-0.3,0.4l-0.7,0.5
		l-0.3,0.1l-0.4-0.2l-1.4-0.8l-1.5-1.5l-1.1-1.4l-0.2-1.6h1.4l0.1,0.7l0.5,0.6l0.3,0.2l0.4,0.1l0.8,0.2l3.5,0.2l-0.7-0.5l-1.2-0.3
		l-0.6,0l-0.4,0l-0.6,0.1l-0.6-0.1l-0.7-0.5l-3.3-3.5l-0.5-1.1l0.1-0.5l0.3-0.4l0.5-0.4l0.5-0.6l-0.3-1.4l-0.8-0.8l-0.8,1.3l0.6,0.4
		l0.1,0.5l-0.7,3.2l-0.3,0.3l-0.4,0.2l-2,0.7l-1.3-0.2l-0.3-0.1l-0.4-0.9l-0.5-0.1l-0.8,0l-2.8-0.5l-1.3-0.3l-1.4,0.3l-0.4,0.2
		l-0.8,0.1l-1.2-0.2l-0.5-0.1l-1.1-0.5l-0.5-0.6l2.3-3l0.7-0.4l0.3,0l1.4,0.1l0.5,0.1l0.9,0.7l0.4,1.1l0.6,1.3l0.7,0.7l0.6,0.3
		l0.6,0.1l0.4-0.2l-0.5,0l-0.8-0.2l-0.5-0.4l-0.3-0.8l0.7-1l1.5-0.3l0.9,0.3h0.4l0.7-0.3l-0.3-1.7l-1.1,0.5l-0.6,0.5l-1.9,0.4
		l-0.3-0.1l-3.5-3.2l-0.2-0.4l0.9-1.4l1.7-1.5l0.4-0.6l0.2-0.5l0.2-0.5l2.1-0.3l0.3,0.2l0.2,0.6l0,0.7l0.8,1.4l0.1,0.1l-0.1-0.3
		l-0.5-1.3v-0.5l0.2-0.7l0.2-0.3l1.2-1l1.8-2.4l-1.3-1.1l-0.4-0.1l-0.4,0l-0.3,0.1l-0.5,0.3l-0.5-0.1l-1.8-2.4l-0.3-1.2l0-0.5
		l-1.2-0.4l-4.6,0.4l-0.1,1.2l0.5-0.1l0.7,0l1.9,0.5l-0.2,0.6l-0.5,0.3l-0.4,0l-1-0.1l-1.3-0.5l-4-1.6l-2-0.9l-1.1-1.9l0-0.6
		l0.2-0.5l0.9-1l1.2-1l-0.1-1.4l-0.4,0.5l-0.3,0.7l-1.6,1.5l-0.6,0.5l-1.1,0.6l-2.7,0.7l-0.7-0.1l-0.7,0l-1.2,0.3l-1.1,0.5l-0.5,0.3
		l-0.9,1.3l0.3,0.3l0.8-0.6l1.8-1.1l0.5,0l0.4,0.2l1.3,3.4l-0.2,0.5l-1,0.6l-0.9,0.3l-0.3,0.1l-0.1,0l-0.2,0l-1-0.3l-1.2-1.3
		l-1.1-1.8l-0.1-1.4l0.2-1.9l1-1.3l0.3,0l0.4,0l0.5,0.1l0.8-0.4l2.1-1.6l-0.1-0.7l0.8-0.8l0.4-0.3l1.1-0.5l0.7,0.6l0,0.3l0.1-1.2
		l0.3-1l1.8-1.7l0.7-0.1l1.5,0l2.2-2.1l0.5-1.1l1.1-2.7l0.6-1.7l0.2-0.3l3.6-0.4l1.5-0.3l0.6,0.2l0.3,0.7l0.9-0.5l1.8-0.2l0.3,0.2
		l0.4,0.5l0.9,2.3l-0.5,2.1l-0.2,0.6l-0.4,0.6l-0.4,0.3l-0.3,0.2l0.4,0l1-0.7l0.3-1.1l0-0.4l-0.1-0.5l0.2-0.4l1.3,1.1l0.1,0.4l0,0.6
		l-0.2,0.5l-0.2,0.3l-0.4,0.4l-0.8,0.6l-0.9,0.4l-1.1,0.4l-1.9,0.5l-0.5,0l-0.5-0.2l-0.7-0.5l-0.4-0.3l-0.7-0.4l1.4,1.2l0.4,0.3
		l0.3,0.2l0.4,0l1.6-0.4l1.3-0.3l0.5-0.3l0.9-0.4l0.4-0.1l0.7,1.9l1.7,1l0.5,0.2l0.2,0l0.2-0.2l-0.5-0.6l-0.4-0.2l-0.5-0.3l-1.3-1.4
		l0.5-1.1l0.4-0.3l1.1-0.1l2.2,2.1l-0.1,1.1l-0.2,0.8l-0.2,0.6l-0.3,0.5l-1.2,1.3l-0.5,0.5l-1.4,1.8l1.4,0.9l0.6,0l0.5-0.2l0.3-0.3
		l0.9-1.7l0.2-0.5l0.4-1.1l2.8-3l0.7-1.7l1.8-2.4l-0.3-0.2l-1.6,1.9l-0.7,1l-0.3,0.7l-0.5,0.9l-0.4,0.5l-0.6,0.2l-0.1-0.9l0.1-0.4
		l0.6-1l0.3-0.8l0.2-0.9l0-0.7l-0.4-1.2l-0.3-0.9l2-3.5l1.7-1.7l0.3-0.3l0.5-0.4l0.4-0.2l0.3,0h0.8l0.9,0.1l0.5-0.1l0.3-0.3
		l-2.3-0.7l-0.6,0.1l-0.7,0.2l-0.6,0.4l-0.5,0.8l-0.2,0.3l-1.3,1.1l-0.3,0.1l0.2-1.9l0.9-4.7l1.9-1.6l1.7-1.1l1.3-0.5l0.5,0.4
		l0.1,0.6l0.5,0.5l0.7,0.5l1.5,0.9l1.1,0.3L242.9,473z M243,458.2L243,458.2l-0.9,0.6l-0.8,0.4l-1.1,1l-0.2,0.3l-0.2,0.3l-0.2,0.1
		l-1.1,0.8l-1,0.4l-0.5,0.1l-0.6,0.1l-0.3,0l-0.2-0.1l-1.8-1.8l-0.1-0.2l0-0.2l0.1-0.2l1.6-0.5l0.3,0.1l0.2,0.1l0.3,0.3l0.7-0.1
		l0.2-0.1l-0.4-0.4l-1.1-0.4l-0.7,0.4l-0.2,0.2l-0.2,0.1l-0.2,0l-0.3-0.1l-0.2-0.2l-0.5-1l-0.2-0.5l-0.3-1.3l0.7-0.8l0.1-0.1
		l0.5-0.1l0.2,0l1.6-0.3l0.2-0.9l0.1-0.8l0-0.3l0.1-0.2l0.3-0.8l0.2-0.2l0.2-0.1l2.1-0.6l1.5-0.3l0.2,0l2,1.4l1.3,0.4l0.3,0.2
		l0.7,1.1l0.1,0.2l0,0.2l-1.3,1.6l-0.2,0.1l-0.2,0.1l-0.3,0.1l-1-0.1l-0.2-0.1l-0.2-0.2l-0.9-0.3l0,0.3l0.2,0.2l1,0.6l0.5,0.1
		l0.7,0.1l0.1,0.3l-0.2,0.4l-0.3,0.3L243,458.2z M204.3,540.2l-0.2,0.1l-0.4,0.1l-0.7-1.5l-0.2-1l-0.4-2l0-0.3l0.4-0.9l-1.7-0.9
		l-1.1,0.5l-0.2,0.1l-0.4,0.1l-0.3,0l-0.2,0l-0.3-0.2l-0.1-0.2l0-0.3l0.1-0.3l0.3-0.2l0.3-0.2l0.5-0.2l0.6,0l0.4,0l0.3-0.1l0.3-0.2
		l0.3-0.2l0.3-0.4l0.2-0.3l-0.2-0.1l-0.8,0.4l-2.2,0.2l-0.2-0.3l-0.6-4.6l0.1-0.2l0.7-0.8l0.5-0.3l2.4-0.6l0.3,0l0.2,0.2l1,2.7
		l0.1,0.4l0.1,1.3l0.6,1.6l0.4,0.9l0.5,0.5l0.6,0.9l0.9,2.1l0.2,1.8l-0.1,0.4l-0.1,0.2L204.3,540.2z M213.9,540l-2-1.3h-0.3
		l-0.3,0.1l-0.3,0.1l-0.3,0l-1.9-0.3l-1.1-0.5l-0.2-0.2l-0.1-0.2l-0.3-1.6l0.1-0.4l0.2-0.3l0.1-0.2l1.2-1.1l0.3-0.1l1.1-0.1l0.2,0
		l0.1,0.3l0.3,0.5l0.1,0.3l0.1,0.2l0.7,0.5l0.8-0.8l0-0.2l-0.2-0.3l-0.2-0.1l-0.5-0.1l-0.6-0.9l-0.1-0.3l-0.2-0.8v-0.3l0-0.3
		l0.7-3.2l0.2-0.3l0.1-0.2l0.2-0.2l0.2,0.1l0.3,0.4l0.1,0.2l0.1,0.3v0.4l0.1,0.8l0.2,1.5l1.5,2.3l-0.3,1v1.2l0.1,1l0.1,0.4l0.8,1
		l0.2,0l0.2-0.2v-0.2l-0.1-0.2l0-0.3l0.2-0.1l0.2,0.1l0.2,0.1l0.2,0.2l0,0.3l-0.1,0.6l-0.1,0.4l-0.1,0.2l-0.2,0.1l-0.9,0.5l-0.3,0.1
		l-0.3,0L213.9,540z M207.2,534.7l-0.2,0l-0.2-0.1l-2.4-4.5l-1-2.7l0.1-0.6l0.6,0l1.1,0.2l1.9,0.4l0.5,0.2l1.4,1l1.9,0.4l0.2,0.2
		l0,0.3l0,0.4l-0.6,3.1l-0.1,0.2l-0.2,0.1l-0.5,0l-0.9,0.5l-0.4,0.3l-0.5,0.3L207.2,534.7z M228.7,469.2l-1-0.3l-0.6-0.6l-0.7,0
		l-0.9,0.2l-0.3,0l-0.6,0l-0.2-0.1l-0.2-0.1l-0.2-0.3l-1.5-1.5l-0.5,0.2l-1.1,0.2l-0.3,0l-0.2-0.1l-0.1-0.5l-0.1-0.6l0-0.2l0.1-0.4
		l0.2-0.3l0.6-0.5l0.2-0.2l0.3-0.1l0.4,0l0.2,0.1l0.3,0.1l0.8-0.1l1.3-0.2l0.4-0.1l0.6-0.3l0.2-0.1l0.3,0l0.4,0l0.3,0.1l0.2,0.1
		l1,0.7l0.2,0.1l0.2,0.1l0.1,0.2l0.7,0.9l0.3,0.6l0,0.2l0,0.3l0,0.5L228.7,469.2z M219,524.9l-0.6-0.3l-2-0.7l-0.3-0.2l0-0.2
		l1.3-1.3l0.2-0.2l0.3-0.2l1.6-0.7l0.3-0.1l3.7,1.1l2,0.7l0.4,0l0.2-0.1l0.5-0.4l0.2-0.1l0.2,0l0.2,0.1l0.3,0.3l0.1,0.2l-0.1,0.3
		l-0.3,0.8l-0.3,0.2l-0.5,0.2l-0.2,0l-0.6,0l-1.8,0l-0.3,0l-0.4-0.1l-0.2-0.1l-0.4-0.1l-0.2,0l-2.7,0.7L219,524.9z M219.9,459.6
		l-0.3,0l-0.5-0.1l-0.3-0.2l-0.2-0.1l-0.2-0.2l-0.4-0.4l-0.7-1.2l0-0.3l0-0.9l0.2-0.2l2.3-0.5l0.3,0l1.5,0l2.6,0.1l0.6,0.2l0.2,0.1
		l0.4,0.2l0.2,0.1l0.2,0.2l0.4,0.6l0.1,0.3l-2.4,0.5l-2.8,1.1l-0.4,0.2L219.9,459.6z M206.5,485.7l-0.2-0.2l-0.1-0.2l-0.2-0.6
		l0.1-0.2l0.2-0.1l2-0.5l0.2,0.1l-0.1-0.4l-0.4-0.1l-0.5,0.1l-0.6,0l-0.3-0.1l-0.2-0.3l-0.6-1.8l0.1-0.2l0.3-0.2l0.4-0.1l1.5,0.5
		l0.2,0.1l0.3,0.2l1-0.5l1.4-1.1l0.9-0.4l0.4,0l0.2,0.3v0.3l-0.1,0.3l-0.8,2.8l-0.1,0.2l-0.1,0.2l-0.4,0.5l-1.8,1.5l-0.3,0.1
		l-1.2,0.1l-0.4,0l-0.6-0.2L206.5,485.7z M197.6,540l0.4-0.5l0.5,0.1l0.5-0.1l0.3,0l0.4-0.2l0.2-0.1l0.3-0.3l0.1-0.3l-0.2-0.1
		l-0.3,0.3l-0.3,0.2l-0.2,0.1l-0.3,0h-0.2l-1.1-0.1l-0.8-0.3l-0.3-0.6l0.3-2.3l0.5-0.8l0.3-0.1l3.5-0.3l0.8,0.1l0.1,0.3l0.3,3
		l-0.1,0.2l-0.8,0.6l-0.4,0.3l-1.1,0.7l-0.5,0.3l-0.2,0.1l-0.3,0.1l-0.5,0l-0.6,0l-0.3-0.1L197.6,540z M216.6,479.2l-0.3-0.1
		l-0.2-0.3l-0.2-0.4l0-0.3l0.1-0.2l0.4-0.4l0.3-0.4l0-0.8l-0.2-0.9l-0.2-0.6v-0.3l0-0.3l0.1-0.4l0.1-0.2l0.2-0.4l0.2-0.4l0.3-0.4
		l0.4-0.1l1.5,0.6l0.3,0.2l0.2,0.2l0.3,0.6l0.2,0.4l0.4,1l0.2,0.8l-0.3,0.8l-0.1,0.2l-2.6,1.7l-0.2,0.1L216.6,479.2z M209.5,526.8
		l-0.2,0l-0.9-0.2l-1-0.4l-0.2-0.1l-0.1-0.3l0.2-0.4l-0.3-0.3l-0.4-0.1l-0.4,0l-0.3,0.2l-0.4,0.4l-0.3,0.4l-0.2,0.1l-0.4,0.1l-0.6,0
		l-0.3-0.1l-0.2-0.2l1-1.2l0.5-0.3l0.2-0.1l1.1-0.3l0.5-0.1l0.3,0l1.5-0.9l1.1-1.4l1-0.4l0.2,0.2l0.1,0.7l0,0.3l0,0.8l0,3l-0.9,0.6
		l-0.2,0.1L209.5,526.8z M230,478.8l-0.2,0l-0.3-0.1l-1.7-1.7l-0.1-2.1v-0.3l0-0.3l0.1-0.2l0.2-0.3l0.9-1.1l0.2-0.1l0.3,0l0.3,0
		l1.2,0.3l0.2,0.2l0,0.7l-0.5,3.9l-0.4,1.1l-0.2,0.2L230,478.8z M219.7,464.1l-0.2,0l-1.2-0.3l-0.1-0.2l0.2-0.5l2.5-2.1l0.2-0.1
		l0.3-0.1l0.3,0l3,0.7l0.2,0.2l0.6,0.7l0.1,0.2l-0.2,0.2L225,463l-0.3,0.1l-1,0.3l-0.3,0l-1.3,0l-0.9-0.1l-0.3,0.1l-0.2,0.1
		L219.7,464.1z M228.5,458.3l-0.2,0l-1-1.3l-0.1-1.9l0.1-0.3l0.2-0.2l1.6-0.3l0.3,0l0.3,0.1l0.3,0.2l0.5,1.1l0.6,1.7l0,0.2l-0.2,0.1
		l-1.8,0.5L228.5,458.3z M224.4,442.4l-0.4-0.4l-1.7-0.4l-0.8-0.3l-0.1-0.2l0.3-1.1l0.2-0.2l0.3-0.1l1,0.1l0.3,0.1l2.2-0.3l0.9-0.7
		l1.2,1.1l0.3,0.9l0.1,0.4l-1.5,0.1l-0.2-0.2l-0.3-0.1l-0.1-0.2l0.2-0.2l0.2-0.2l-0.2-0.1l-0.4,0l-1,0.2l-0.1,0.4l0.2,0.2l0.1,0.2
		l0.4,0.2l-0.5,0.6l-0.3,0.1L224.4,442.4z M224.2,470.6l-0.2,0l-2-0.6l-0.2-0.2l-0.4-1.3l0.4-0.4l1-0.4l0.3,0l0.2,0.1l0.2,0.1
		l0.2,0.5l0.2,0.1l0.2,0.1l0.3,0.1l0.3,0l0.6,0l0.3,0l0.6-0.1l0.5-0.1l0.4,0.1l0.2,0.1l0.2,0.1l0.2,0.4l0.2,0.4l0,0.4l-0.2,0.3
		l-0.2,0.1l-1.2,0l-1.4,0L224.2,470.6z M215.5,532.5l-0.2-0.1l-1-1.9l0-0.2l0-0.4l0-0.5l0-0.8l0.6-0.7h0.3l0.3,0.2l0.5,0.4l1.8,1.6
		l0.4,0.7l-0.7,0.8l-0.2,0.1L215.5,532.5z M228,488l-0.5-0.4l-0.2-0.1l-2-2.3l0-0.3l0.2-0.5l0.2-0.2l0.2-0.1l0.8,0l0.3,0l1.5,0.6
		l0.7,0.5l0.2,0.2l0.1,0.4l-0.1,0.4l-0.9,1.5l-0.2,0.4l-0.2,0.1L228,488z M217.6,454.5l-1.8-0.4l-0.3-0.2l-0.1-0.2l-0.2-0.7l0.1-0.3
		l0.4-0.3l0.2-0.1l3.2-0.8l0.8,0.2l0.6,0.8l0.2,0.3l0,0.2l-0.4,0.1l-1.5,0.3l-1.1,0.2l-0.2,0.1L217.6,454.5z M224.5,478.1h-0.2
		l-0.9-0.1l-0.2-0.2l-0.5-1.1l-0.3-0.7l0-0.4l0.8-0.9l0.5-0.3l0.3,0l0.8,0.4l0.8,0.7l0.3,0.6l0,0.3l-0.1,0.6l-0.3,0.8L224.5,478.1z
		 M197.5,542.3l-0.2,0l-0.2-0.1l-0.3-0.3l-0.1-0.3l0.1-1.3l0.4,0l0.7,0.3l0.7,0.2l0.3,0l0.3,0l0.2-0.1l1-0.8l1.3-1l0.8,0.5l0.2,0.6
		l0.1,0.2l0,0.3l-0.3,0.4l-0.3,0.2l-2.9,0.9L197.5,542.3z M221.9,475.1l-0.1-0.1l0-0.2l0.1-0.5l0.1-0.3l0.2-0.2l0.2-0.2l0-0.4
		l0.1-0.3l0.2-0.3l0.2-0.3l0.1-0.2l0.2-0.2l0.2,0l0.2,0.1l0.2,0.1l0.3,0l0.4,0l0.2,0.1l0.2,0.1l0.2,0.1l0.5,0.2l0.2,0.2l0.2,0.1
		l0.2,0l0.4-0.3l0.3-0.1l0.3,0.2l0.1,0.3l-0.1,0.4l-0.2,0.4l-0.1,0.3l-0.3,0.4l-0.1,0.4l-0.2,0l-0.3-0.2l-0.2,0l-0.3-0.1l-0.3-0.4
		l-0.3-0.1l-0.3,0l-0.5-0.2l-0.5-0.1l-0.2,0l-0.3,0.2l-0.4,0.1l-0.3,0.2l-0.2,0.4l-0.2,0.2L221.9,475.1z M221.4,507.9l-0.2-0.1
		l-0.7-0.8l0-0.3l0-0.3l0.5-1.4l0.2-0.2l0.2-0.1l0.2,0l2.2,0.1l0.9,0.6l-1.4,1.6l-0.4,0.3l-0.2,0.1l-0.2,0.1l-0.8,0.3L221.4,507.9z
		 M226.8,462.6l-0.6-0.5l-0.5-0.5l-0.2-0.3l-0.1-0.2l-0.1-1.5l0.1-0.3l0.3-0.3l0.2-0.1l0.2,0l0.4,0l0.3,0.1l0.2,0.2l1,2.3l0.1,0.6
		l-0.1,0.3l-0.1,0.2l-0.3,0.2l-0.3,0l-0.2,0L226.8,462.6L226.8,462.6z M219.7,535.2l-0.2-0.3l-0.2-0.1l-0.3-0.2l-1.2-0.7l-0.3-0.2
		l-0.8-0.3l-0.2-0.2l-0.2-0.3l-0.1-0.2l2.1-1.4l0.3-0.1l0.2,0l0.4,0.1l0.2,0.2l0,0.3l-0.2,0.6l0,0.3l0.2,0.3l0.5,0.6l0.3,0.3
		l0.3,0.2l0.2,0.2l-0.1,0.3l-0.2,0.1l-0.5,0.3L219.7,535.2z M212.6,478.2l0-0.2l0-0.4l0.1-0.3l0.3-1.1l0.1-0.2l0.1-0.2l0.2-0.2
		l0.2-0.1l0.2-0.1l0.9-0.4l0.4,0l0.2,0.1l0.1,0.2l-0.2,1.9l-0.5,1.1l-0.2,0.2l-0.2,0.1l-0.3,0l-0.2,0l-0.9-0.2l-0.2-0.1L212.6,478.2
		z M225.8,483.5l-0.2-0.1l-0.2-0.2l-0.3-0.6l0-0.3l0.2-0.3l0.1-0.2l0.5-0.6l0.3-0.3l2.4-1.2l0.2,0l0.2,0.3l0.1,0.2l0.1,0.3l0.1,1
		l-0.3-0.1l-0.2-0.1l-0.3,0l-0.7,0.1l-0.3,0.1l-0.3,1l-0.5,0.9L225.8,483.5z M204.6,521.8l0.1-0.4l0-0.2l-0.2-0.2l-0.7-0.2l-0.3,0
		l-0.3,0l-0.3-0.1l-0.2-0.3l0.6-0.6l2.1-1l0.3,0.1l0.5,0.6l0.2,0.4l0.3,0.8l-0.1,0.3l-0.2,0.4l-0.2,0.2l-0.2,0.2l-0.5,0.2l-1.1,0.2
		L204.6,521.8z M223.9,482l-0.8-1.6l-0.4-0.6l-0.2-0.5l0.2-0.4l0.1-0.2l0.6-0.4l0.2,0l1.1,0.4l0,0.7l-0.1,1.5l-0.1,0.3l-0.2,0.5
		L224,482L223.9,482z M217.9,460.6l-0.3,0l-1-0.6l-1-1.4l0-0.3l0.2-0.2l0.2-0.1l1-0.3l0.3,0.1l1.9,2.3l0,0.2l-1,0.2L217.9,460.6z
		 M217.8,471.4l-1.6-0.8l-0.2-0.1l-0.2-0.2l-0.3-0.4l-0.1-0.2l0.1-0.3l0.2-0.2l0.3-0.1l0.3,0l0.3,0h0.7l0.3,0.1l0.2,0.2l0.3,0.3
		l0.2,0.3l0.6,1.4l-0.2,0.2l-0.3,0.1l-0.3,0.1l-0.4-0.1L217.8,471.4z M223.5,454.6l-0.4-0.1l-0.5-0.1l-0.3-0.1l-0.2-0.1l-0.1-0.3
		l0.1-1.4l1.7,0.2l0.4,0.1l0.3,0.1l0.2,0.1l0.2,0.2l0.1,0.2l0.1,0.3l0,0.4l-0.1,0.3l-0.2,0.1L223.5,454.6z M238.1,444.1l-0.5-0.1
		l-1.3-0.5l-0.2-0.3l-0.1-0.4l0-0.3l0.3-0.5l0.2-0.2l1.1-0.5l0.3,0l0.2,0l0.2,0.1l0.1,0.1l0,0.3l-0.2,2.1L238.1,444.1z M224.1,450.1
		l-0.3,0l-0.2-0.1l-0.6-0.5l-0.3-0.3l-0.5-1.7l1-1l0.2,0l1,1.1l0.6,0.6l-1,0.3l-0.1,0.3l0,0.3L224.1,450.1z M229.9,446.3l-1.2-1.8
		l-0.5-1l0-0.3l0.1-0.3l0.2-0.4l0.1-0.1l0.4,0l1.2,1.4l0.4,1.4l-0.1,0.5l-0.5,0.5L229.9,446.3z M217,536.5l-0.3-0.7l-0.8-1.3
		l-0.1-0.2l0-0.2l0.3-0.3l0.3,0l0.4,0.2l1.2,0.6l0.8,0.5l0.3,0.2l0.1,0.2l0,0.2l-0.2,0.2l-0.3,0.2l-0.9,0.4l-0.4,0.2l-0.2,0
		L217,536.5z M218.7,469.4l-0.9-0.6l-0.3-0.2l-0.2-0.1l-0.1-0.2l0-0.3l0.2-1.1l0.2-0.4l0.4,0l0.2,0.1l1.3,1.1l-0.5,1.8l-0.2,0.1
		l-0.2,0L218.7,469.4z M216.5,457.4l-0.6,0l-2.1,0l-0.8-0.3l0-0.3l0.1-0.2l0.7-0.6l0.2-0.1l0.3,0l0.2,0l0.4,0.1l1.2,0.2l0.3,0.1
		l0.1,1L216.5,457.4z M216.5,507.6l-0.4-0.7v-0.7l0.1-0.2l1-0.5l0.2-0.1l0.6-0.1l0.5,0l0.4,0.1l0.1,0.2l0,0.3l-0.2,0.4l-0.1,0.2
		l-1.8,1.3l-0.3,0.1l-0.1-0.2L216.5,507.6z M206.2,462l-0.2,0l-0.2-0.1l-0.5-1.4l-0.1-0.2l0-0.2l0-0.3l0.2-0.3l0.4-0.4l0.4-0.1
		l0.2,0.1l0.9,1.3v0.9l-0.8,0.6L206.2,462z M224.8,452.2l-1.7-0.8l-0.2-0.2l-0.3-1.1l0.3-0.1l2.6,0.7l0.1,1.6l-0.1,0.2l-0.3-0.1
		L224.8,452.2z M218.8,455.1l-0.1,0l-0.2-0.1l-0.2-0.3l-0.1-0.2l0-0.2l0.1-0.2l1.2-0.5l1.7-0.1l0.9,1.1l-0.8,0.2L218.8,455.1z
		 M223.1,535.7l-0.1,0l-0.3-0.2l-1.4-0.8l-1-0.9l-0.2-0.3l0.1-0.3l0.3-0.1l0.3,0l0.2,0l0.4,0.1l1.6,1l0.2,0.1l0.2,0.2l0.1,0.2
		L223.1,535.7z M229.4,484.3l-0.2,0l-1.6-0.4l-0.4-0.3l-0.1-0.3l0-0.3l0.8-1.3l0.2-0.1l0.2,0l0.7,0.6l0.5,2L229.4,484.3z
		 M229.4,460.2l-0.6-0.3l-0.3-0.2l-0.1-0.8l0.1-0.3l1.9-0.4h0.2l0.2,0.2l0,0.2l-0.3,1.5l-0.3,0.3l-0.3,0.1l-0.4-0.1L229.4,460.2z
		 M226.5,447.5l-1.3-0.2l-0.6-0.1l-0.2-0.1l-0.2-0.1l-0.1-0.2l-0.1-0.3l0.6-0.5l0.4-0.3l0.4-0.1l0.2,0.1l0.7,0.4l0.7,0.8l-0.1,0.4
		l-0.1,0.2l-0.2,0.1L226.5,447.5z M223.5,460.6l-0.4,0l-1.7-0.6l-0.2-0.2l0.3-0.2l0.9-0.1l0.5-0.1l0.2-0.1l0.4-0.2l0.3-0.2l0.3-0.1
		l0.7,0.1l0.2,0.2l-0.1,0.8l-0.2,0.2l-0.2,0.1l-0.6,0.2L223.5,460.6z M207.7,520.7l-0.1,0l-0.7-0.5l-0.1-0.2l-0.4-1.2l0.2-0.1l0.4,0
		l1.4,0.3l0.2,0.1l0.3,0.3l0.4,0.5l0.1,0.3l-0.2,0.3l-0.7,0.2L207.7,520.7z M211.2,457.2l-0.2-0.1l-0.3-0.5l-0.1-0.2l-0.1-0.5l0-0.4
		l0-0.8l0.1-0.3l0.2-0.1h0.2l0.9,0.5l0.2,0.2l0.1,0.3l0,0.3l-0.2,1.2l-0.4,0.2l-0.2,0.1L211.2,457.2z M225.6,472.2l-1.2-0.3
		l-0.4-0.1l-0.1-0.2l0.1-0.3l0.2-0.1l0.7-0.2l0.3,0l1.7,0l0.2,0.1l0,0.3l0,0.4l-1.2,0.5l-0.2,0L225.6,472.2z M226.6,450.3L225,450
		l-0.2-0.2l-0.1-0.7l2.6-0.2l0.3,0.1l0.1,0.7l0,0.3l-0.2,0.1l-0.2,0l-0.4,0.1L226.6,450.3z M240.1,438.3l0.7-0.4l0.8-0.1l0.6,0.6
		l0.4,0.1l0.3,0l0,0l-0.2,0.2l-1,0.1L240.1,438.3z"/>
	<path id="CL-MA" class="st0" d="M237.8,615.8l-0.4,0l-0.6-0.1l-0.6-1.3l-0.3-2.6l-0.1-2.5l-0.3-2l-0.3-0.5l-0.8-0.7l0.2,0.5
		l0.5,1.2l0.2,1.2l0.9,7.6l-0.2,0.8l-0.5,0.2l-0.5-0.3l-3.3-2.4l-0.3-0.4l-0.2-0.7l0.1-0.9l-0.5-1.5l-0.7-1.7l0.8-0.4l0.2,0.5
		l1.3,2.5l1.3,1.8l0.5-0.2l-1.3-2.4l-1.8-3.6l0.6-0.3l0.5-0.3l0.7-0.8l-2.4,0.6l-1.4,1.6l-1-1.7l-0.5-1.6l-1.1-0.2l-0.8-0.3
		l-0.4-4.3l0.1-0.5l0.3-0.8l1.5,0.4l1.7,1.7l0.5,0.9l0.9,1.8l0.2,1l0.2-0.1l0.1-0.6l-1.6-4.2l-1.4-4.5l0.7-0.4l0.6,0.8l0.2,0.6
		l-0.3-2.5l-0.4-0.4l-0.4,0.2l-1.6,1.7l-0.4,0.3l-0.3,0.1l-3-0.8l-0.7-0.5l-0.4-2.5l-1-0.6l-0.4-0.3l-0.2-2.4l0.4-0.6l0.7-0.5
		l0.7-0.2l3.8,0l0.4,0.2l0.6,0.8l1.2-2.8l0-2.3l0.5-0.6l1.4-0.4h0.5l1,0.6l0.2,0.7l0.5,0.3l0.5-1l-1-0.9l-0.8-0.1l-0.7-0.2l-1.1-1.1
		l0-0.5l0.3-0.5l0.4-0.1l0.6-0.1l0.4-0.2l0.3-0.3l0.5-1.9l-3.1,2.6l-0.3,0.5l-0.4,1.4l-0.5,1.9l0.1,0.5l0.1,0.6l-0.2,0.4l-1.7,1.5
		l-0.3,0.2l-1.6-0.2l-1.3-1.3l-0.7-1.5l-1.2-2.3l-0.9-2.8l1.2-0.4l1.5,0.5l0.4,0.3l0.4,0.3l0.4,0.3l0.5,0.2l2.2,0.3l-0.8-0.5
		l-0.8-0.2L223,579l-0.7-0.8l-2.8-0.2l-3-1.8l-3.6-3.1l-0.1-0.7l0.4-0.6l0.6-0.6l0.8-0.5l1.6-0.5l1,0.3l1.4-0.1l0.9,1l0.3,0.7
		l1.1,1.1l4,1.6l1.1,0.2l0.3,0l0.2-0.2l-4.4-1.8l-0.4,0l-0.4-0.2l-0.5-0.5l-2.7-4.2l0.2-0.9l0.4-0.5l1.1,0.1l0.8,0.2l1.6,1.5
		l3.9,1.4l0.1-0.7l-0.2-0.6l-1.8-0.7l-1.5-0.5l-3.3-1.5l-0.5-0.6l-0.4-1.5l1.7-0.8l0.9-0.3l0.8-0.1l0.5,0.2l0.7-0.1l0.2-0.7
		l-2.1,0.3l-1.5,0.3l-0.3-0.1l-0.4-0.9l-0.1-1.1l0.1-0.5l1.3-1.1l2.2-0.6l0.4-0.1l2.3,0.5l0.3,0.5l0.4,1.3l0.4,0.7l0.6,0.3l0.5,0.1
		l1.1,1l0.4,1.3l0.2-0.7l-0.3-1l-0.4-0.8l-0.3-0.3l-1.3-0.1l-0.4-1.5l0.1-1.3l-0.7-0.4l-1.3,0.1l-1.7-0.5l-0.3-0.3l-0.2-1.5l0.6-3
		l0.2-0.3l0.5,0l0.6,0.5l0.2,0.5l0.3,0.5l0.8,0.4l0.5,0.1l0.6-0.2l-0.7-0.4l-0.5-0.1l-0.3-0.2l-0.9-1.3l-0.5-3.5l0.2-0.4l0.5-0.6
		l0.3-0.3l0.4-0.2l0.5,0l0.5,0.3l0.3,0.3l0.6,0.1l0-0.5l-1-0.5l-2.5,0.2l-0.1,0.9l0.2,2l-1.1,1.8l-0.7,1.8l-0.2,1.2l-0.6,3l-0.4,0.5
		l-0.4,0.1l-0.4-0.3l-1.8-2.1l-0.4-1.9l0-3.9l0.1-4.3l-0.3-0.7l-0.3-0.7l-0.3-1.1v-0.7l0.2-0.5l1-1.4l0.7,0.4l0.5,0.2l0.4-0.1
		l0.7-0.4l0.5-0.2l1.4,0.1l1.1,0.4l0,0l5.7,4.3l4,2.9l4.9,3.6l0.3,0.2l0,0l1.3,0.3l-0.8,0.8l-4.8,0.1l-0.7,0l-1.2,2.9l-0.7,2.1
		l0.2,0.4l0.9,1l1.1,4.1l-0.3,0.4l-0.6,0.5l-0.5,0.5l-0.4,1.9l0.7,0.6l0.4,0.3l0.3,0.4l-0.1,0.7l-0.5,0.5l-0.4,0.7l-0.2,0.7l0.2,0.6
		l1.4,1l1.4,1l0.3,0.3l0.2,0.4l0.7,1.4l0.2,0.6l0.3,3.2l0.3,2.2l0.9,3.2l0.3,0.4l0.3,0.3l0.5,0.1l0.4-0.1l0.5-0.2l0.6-0.3l0.6-0.4
		l1-1.1l0.3-0.3l0.5-0.3l1.8-0.8h0.5l0.5,0.4l0.3,0.3l0.3,0.3l0.5,0.2l0.5-0.1l0.3-0.2l0.4-0.6l0.4-0.4l0.4-0.2l0.4-0.1l2,0.3
		l1.3,0.9l-0.1,0.5l-0.6,1.2l0.1,0.5l0.5,0.5l0.4,0.5l0.4,0.7l0.2,0.5l-0.4,3.5l-0.3,0.5l-0.9,0.1l-1,1.7l0.3,1.2l0.4,0.5l0.4,0.3
		l0.6,0.3l0.7,0.8l-0.2,0.6l-0.5,0.4l-0.3,0.6l0,1.1l0.1,0.9l-0.6,2l-0.4,0.3l-0.5,0.3l1.8,4.2l0.5,0.3l0.8,0.1l0.4,0.2l0.3,0.2
		l0.4,0.3l0.8,0.6l2.1,2.1l0.3,0.6v0.8l0.5,1.9l3.6,0l7.7,0h13.3l5.4,0h1.9l0.9,0.3l2.9,1.2l5.1,1.9l2.9,0l0.9,0l3.3,1.2l0.7,0.3
		l0.9,0.6l1.8,1.1l1.7,0.2l1.3,0.2l1.2,0.2l2.3,0.5l-0.1,1.1l-0.6-1l-0.5-0.2l-2.8-0.4l-2-0.1l-0.3,0l-2.1-0.3l-0.7-0.2l-0.3-0.2
		l-0.7-0.5l-0.4-0.3l-0.8-0.4l-0.6-0.2l-0.6,0l-0.4,0l-1,0.1l-2.9,1.1l-0.4,0.3l-0.2,0.4l0,0.7l-0.1,1.6l-1.1,1.6l-0.4,0.5l-0.9,0.7
		l-0.3,0.4L296,626l-1.8-0.2l-0.5-0.4l-1.7,0.3l-3.8,1.4l-0.5,0.2l-5.4,2.8l-0.5,0l-2.6,0.3l-2.1,0.3l-0.5,3.4l0.2,0.7l0.3,0.3
		l0,1.7l-1.3,3.2l-0.3,0.5l-0.4,0.4l-0.3,0.5l-0.2,0.7l-0.6,4l0,0.8l0.1,0.6l0.2,0.8l0.3,0.6l0.2,0.8l0.1,0.7l0.1,0.9L275,652
		l-0.6,3.1l-0.3,0.6l-0.8,0.9l-3.1,1.3l-0.8,0.3l-2.8-1.2l-0.5-0.1l-0.7-0.1l-0.8,0h-0.4l-0.7-0.1l-1.1-0.3l-2.6-1.6l-1.4-0.3
		l-1.9-0.5l-1.1-0.5l-2.9-2.6l-1-1.3l-0.8-1.1l-0.4-0.6l-0.5-1.2l0.5-2l2.3-1.8l2.8,0.3l0.5,1.1l0.1,0.5l-0.1,0.9l-0.2,0.6l-1.1,0.6
		l-1.2,0.5l0.6,0.2l1.4-0.4l0.6-0.3l1-0.6l0.1-0.5l-0.1-0.8l-0.2-1l0-0.5l0.2-0.8l0.4-0.5h2.1l0.5,0.5l0.8,4.4l-0.2,0.6l-0.3,0.3
		l-0.5,0.4l-1.6,0.8l-0.5,0.2l-0.6,0.4l0,0.7l0.2,0.1l0.8-0.4l2-0.7l0.5-0.3l0.7-1.2l-0.1-1.6l-0.2-1.2l0.1-1.5l0.5-1.7l4.3-2l0.5,0
		l0.4,0l0.5-0.1l0.3-0.2l0.3-0.2l0.3-0.3l3.3-5l0.2-0.6l-0.8-1.3l-1.5-0.4l-1.6-0.1l-4.2,2l-3.5,1.9l-1.4,1l-0.3,0.6l-1.7,2.3
		l-0.9,0.2l-0.5,0l-0.6-0.3l-0.3-0.4l-0.3-0.5l-0.3-0.5l-0.3-0.3l-1.4-0.4l-3.5,0.8l-0.5,0.5l1.3-0.2l1.7,0l2.6,1.9l0.3,0.6
		l-0.2,0.4l-2.3,0.6l-0.5-0.1l-0.6-0.5l-1.2-0.3l-0.8,0.4l0.4,0.6l0.6,0.2l0.3,0l0.5,0.2l-1.6,2.8l-0.5,0.2l-0.9-0.2l-0.5-0.6
		l-0.3-0.3l0.1,0.9l1.4,1.4l0.5-0.3l0.5-0.1l1.7,2.2l0.2,0.6l-0.3,0.4l-1.6,0.2l-0.2,0l-0.5-0.5l-3.2-2.3l-2.2-1.1l-1.3-0.8
		l-0.4-0.5l-1.7-1.2l-0.3-0.1l-0.5,0l-0.4-0.1l-1.1-0.9l-1.4-1.8l3.7,0.2l1.3-0.2l0.9,0.1l1.6,1.1l1.2,1.7l0.4,0.3l0.7-0.1l0.3-1.2
		L245,642l-0.7-0.7l0.6-1l0.7,0.2h0.9l-0.8-0.5l-1.1-0.2l-0.5,0.1l-0.4,0.4l-0.4,0.1l-1.4-1.1l0.4-0.5l0.2-0.2l0.4-1.1l-0.7-0.8
		l-0.5-1.4l-0.1-1.8l0.7-0.8l3.3-1.8l2.3,1.2l1.9,0.5l0.7-0.2l2-1.5l2-2l0.2-0.5l2.7-0.3l1.9,1.2l0.8,0.2l0.9,0l1.2,0l0.6-0.1
		l0.5-0.1l0.5-0.2l2.4-1l-0.7-1.5l-0.4-0.3l-0.7,0l-0.4,0.1l-0.5,0l-2.1-0.3l-2.5-0.5l-3.5-0.4l-2.4,0.1l-0.6,0.1l-0.5,0.6l-0.4,0.9
		l-0.9,1.7l-2.1-1.5l0.8-1l0.5-0.3l0.5,0l0.7-0.3l-0.3-0.4l-1.8,0.5l-0.3,0.3l-1.4,0.2l-2.7,0l-1.8,1.9l0.3,0.3l1.2-0.7l2.1,0.7
		l0,0.5l-1.3,1.6l-0.7,0.7l-1.1,0.8l-1,0.2l-0.4,0.1l-0.5,0.5l-0.4,0.6l0.5,1.5l0.4,1.6l-0.1,1l-0.5,0.9l-1.7,0.5l-0.1,0.1l-0.5,0.3
		l-1.3,0.1l-1.9-0.7l-2.2-1.8l2.3-1.5l1.3-1.2l-2-0.3l-3.3-1.8l0.8-0.6l1.5,0.1l0.4,0.4l2.6-0.3l-0.3-0.7l-0.1-0.9l2.6-4.9l0.7-0.3
		l1.4,0.2l0.9,0.2l0.5,0.1l-0.5-0.5l-1.6-0.3l-0.5-0.1l-0.5,0l-1.3,0.2l-0.4,0.4l0.2,1.2l-0.1,0.5l-1.6,2.1l-0.6,0l-0.4-0.2
		l-0.1-0.5l0-1l-0.5-0.2l-0.4,0.2l-1.9,1.4l-0.9,0.8l-0.6,0.9l-0.3,0.5l-1.4-0.6l0.2-2.9l0.9-1l0.7-0.2l0.4,0.2l0.2-0.4l-0.8-0.2
		l-0.3-0.5l-0.8-2.1l0-0.7l0.3-0.4l0.5,0.1l0.5,0.1l0.4-1.2l-0.3-2.2l-1-1.5l-1.3-1.7l-0.3-0.6l0.1-0.8l0.5-0.3l0.4,0.4l0.3,0.8
		l2,2.7l0.5,0.1l0.8-0.5l2,1.1l0.4,0.1l1-0.2l0.4-0.3l0.4-1l0.8-1.1l1.1-0.5l1.2-0.5l0.6,0.1l0,1.6l-0.1,1.1l1.2,1.4l0.7,0.3
		l0.6-0.6l1-3.2l-0.2-0.9l-0.5,0.5l-0.5,1.2l0,0.6l-0.5,1l-1.1-0.7l0-2l1.4-3l1-0.4l1.8,1.1l-0.1,1.3l0.7,1l0.7,0.3l0.3,0.3l0.8,1.3
		l0.3,0.7l-0.7,2.8l-0.6,0.6l-2.2,0.8l-3.1,1.7l0.5,0.2l1.3-0.4l3.1-1l0.9-0.5l1.5-1.3l0.4-2.6l-0.2-0.5l-1.1-1.2l-1.6-1.8l-0.3-2
		l0.5-0.4l1.9,0.3l0.4-0.2l0.4-0.3l0.2-0.4l-0.2-3l-0.6-1.4l-2.5-2.6l-0.9-0.7l-0.4-0.2l-0.7-0.1l-0.8,0l-1.4-0.5L240,602l-0.4-0.5
		L239,601l-0.7,0.1l-1.4,0.3l-0.5,0.5l0.2,0.4l0.7,0.2l0.4-0.1l0.7-0.4l1.5,0.4l1.4,0.7l2.1,1.6l2.4,2l0.4,0.2l1.9,0.5l0.3,0.4
		l-0.3,1.1l-1,1l-1.6,0.1l-1.2-0.7l-0.4-0.8l-2.7-1.1l-3.3-2.1l-1.1-0.6l-0.7,0.1l0.9,2.2l0.5,0.3l0.6,0.1l0.5,0l0.6-0.3l0.6,0.3
		l0.4,0.4l0.5,0.8l-1,1.5l-0.4,0.2l-0.7,0.1l-1.1,0.3l2-0.3l1-0.7l0.6-0.3l0.6,0.3l0.2,0.6l-0.5,0.5l-1.1,0.4l-1,0.4l-0.8,0.5
		l-0.3,0.6L237.8,615.8z M313.2,680l0,2.4l-0.1,0.1l-0.1,0l-0.3,0l-0.2-0.1l-0.3-0.3l-0.6-0.6l-0.3-0.2l-2.2-0.9l0.7,1l0.2,0.2
		l0.2,0.2l0.4,0.3l0.7,0.3l0.2,0.5l-0.3,0.4l-0.5,0.2l-2.6,0.5l-1.8,0.2l-0.4,0l-0.3-0.1l-6.1-1.9l-1.1-0.4l-1.7-0.8l-0.2-0.6
		l0.1-0.3l0.5-0.5l0.1-0.3l-0.1-1.5l-0.2,0l-1.3,0.8l-0.1,1.5l-0.3,0.5l-5.8,1.1l-2,0.1l-0.5,0l-0.6-0.1l-0.4-0.2l-0.2-0.5l-0.1-0.8
		l0.3-0.4l0.3-0.4l0.9-1.3l0.1-0.3l-0.2-0.1l-1.4,1.6l-0.4,0.8l-0.2,0.4l0,0.3l-0.5,0.2l-0.6-0.2l-3.3-0.2l-1.8,0.8l-0.2,0l-0.2,0
		l-0.6-0.1l-0.3-0.2l-0.2-0.3l0.8-0.9l0.3-0.2l0.3-0.1l0.7-0.1l0.5-0.2l1-0.5l1.4-0.8l0.3-0.2l1-1.2l0.1-0.3l-0.1-0.1l-0.3,0l-1,0
		l-0.2,0.1l-1.1,1l0.3,0.2l0.4,0.2l-0.1,0.2l-0.8,0.4l-1.5,0.5l-1.2,0.3l-1.6-0.1l-0.4-0.8l0.2-0.1l0.7,0l1.3-0.4l0.2-0.2l-0.2-0.2
		l-0.2,0l-0.2,0l-1,0.3l-1.1,0.8l-1.3,1.4l-0.4,0.1l-0.2-0.2l0-0.3l0.2-0.3l0.2-0.2l0.2-0.3l0.2-0.2l0.1-0.3l0.4-1.6l0-0.5l-0.7-0.1
		l-0.4,0.3l0.1,0.3l-0.1,0.3l-0.2,0.3l-1.8,0.9l-0.3,0.1l-1.5-0.6l-0.3-0.2L269,677l0-0.3l0.2-0.2l0.2,0l0.2-0.8l-0.1-0.9l-1.2-1.4
		l-0.3,0l-0.8,0.8l-1.2,2.8l-0.1,0.5l-0.2,0l-0.3-0.1l-2.6-1.7l-0.2-0.2l-0.5,0l-0.5,0.2l-0.7,0.5l-0.3,0.4l-0.3,0.1l-1.6,0.1
		l-0.2,0l-0.4-0.1l-0.3-0.2l-0.2-0.5l-0.4-1.4l-0.1-1.4l0.1-1.1l0.2-0.2l0.2,0l0.9,0.3l0.8,0.8l0.2,0.5l0.1,0.3l0.2,0.3l0.3,0.2
		l1.2,0.4l1,0.3l0.2,0l1.6-0.7l-1.9-1.9L262,672l-0.2,0l-0.6,0.3l-0.3,0l-0.7-0.4l-0.2-0.3l-0.1-0.8l0.9-0.5l0.4,0l0.4,0l0.2,0
		l0.3,0.3l0.2,0.6l1.1,1.4l0.3,0.2l0.3,0.1l0.6,0.1l1.2-0.4l0.1-0.2l-0.3-0.3l-1-0.1l-0.3-0.1l-0.2-0.2l-0.3-0.4l-0.2-0.5l0.3-0.3
		l0.2,0l2.3,0.9l1.2-0.5l-0.8-0.4l0.3-0.4l0.6-0.4l0.3,0l2.8,1.4l3.6,1l0.5-1.3l0-0.3l0-0.3l0-0.3l-0.2-0.6l0.2-0.3l0.7-0.4l0.7-0.2
		l0.7,0l0.6,0l1.8,0.2l0.2,0l0.6,0.2l0.1,0.2l-1,1.3l-0.7,1.4l-0.3,1.5l-0.3,2l0.6-0.6l1.3,1l-0.8-1.2l-0.1-0.2l-0.2-0.5l0.1-0.4
		l0.5-1.5l0.1-0.2l0.3-0.5l0.2-0.2l0.6-0.5l0.3,0l0.2,0.4l0.2,0.3l1.7,1.3l0.6,0.2l0.2,0.1l0.2,0.2l0.9,0.6l0.2,0.2l0.2,0.2l0.2,0.3
		l0.2,0.3l0.3,0.1l0.3,0l1.8-0.7l-1.5-1l-0.4-0.3l-0.7-0.3l-0.4-0.2l-0.8-0.4l-0.3-0.2l-0.4-0.2l-0.7-0.4l-0.2-0.3l-0.8-1.3l0.2-0.5
		l-0.1-0.4l-0.2-0.4l-0.2-0.2l-0.3-0.3l-0.4-0.2l-1-0.3l-0.3,0l-0.7-0.1l-1.4,0.1l-0.6,0l-0.3-0.1l-0.2-0.1l-0.3-0.3l-0.2-0.3
		l-0.6-2.3l0.6-0.2l0.4,0.3l1.2,0.8l2.2,1l5,2.4l3.1,2.5l0.3,0.1l1.1-1.1l0.1-0.3l-0.2-0.2l-1.2-0.3l-0.3-0.1l-0.4-0.3l-0.2-0.3
		l0-0.3l1.1-0.9l0.6-0.5l0.3-0.2l0.2,0l0.2,0l0.8,0.5l0.6,0.7l1.7,3.2l1.2,2.7l0.4,0.4l0.3-0.1l0.2-1.8l-1.1-2.3l-0.6-1.2l-0.3-0.2
		l-0.4-0.3l0.3-0.6l0.2-0.1l0.4,0l0.7,0.2l1.9,0.8l0.4,0.3l0.4,0.5l4.1,0.9l2.2,1.1l0.2,0.1l0.2,0.2l0.1,0.3l0,0.3l-1.2,1.3
		l-0.2,0.1l-0.6,0.3l-0.2,0.2l-0.7,1.2l-0.2,0.4l0.5,1.3l0.2,0.2l0.2-0.8l0.6-1.3l0.4-0.8l0.2-0.3l0.2-0.2l0.5-0.3l0.3-0.1l0.2,0.1
		l0.2,0.2l0.2,0.5l0.3,0.6l0.1-0.1l0.4-0.6l-0.2-0.8l-0.2-0.3l0-0.5l0.1-0.4l0.2-0.4l0.2-0.1l0.7,0l0.2,0l0.5,0.2l0.6,0.5l0.2,0
		l0.2-0.2l0-0.9l-0.2-0.3l-0.2-0.1l-1.1-0.6l-3.1-1.5l-2.3-0.9l-0.4-0.1l-1.4-0.5l-0.2-0.1l-0.2-0.2l-0.3-0.5l-1.8-0.6l-0.5-0.1
		l-0.3,0l-0.4,0l-0.3,0l-0.4-0.1l-1.5-0.5l-2.7-1.6l-0.3-0.3l-0.1-0.3l-1.3-3.7l-0.5-2.1l-0.1-0.6l0-0.5l0.1-0.5l0.3-0.5l0.3-0.2
		l3.8-2.1l0.2,0l0.5,0.1l0.4,0l0.2,0l0.3,0l0.9-0.3l6.6-3.2l0.2-0.1l0.2-0.3l0.1-0.5v-0.3l-0.3-2.4l-0.2-0.3l-0.3-0.3l-3.2-0.2
		l-0.5,0l-4.8,0.6l-0.2,0l-0.7,0.2l-0.6,0.3l-0.7,0.5l-0.2,0.2l-0.4,0.5l-0.3,0.2l-2.1,0.8l-0.2,0l-0.2,0l-0.3-0.1l-0.3-0.2l-3-2.2
		l-0.1-0.2l-0.5-1.8l-0.1-1.2l0-0.3l0.5-4.3l0.1-0.3l0.1-0.2l0.2-0.3l1.3-1.3l0.2,0.2l-0.2,0.6l0,0.4l0.3,1.2l0.3,0.1l1.9-0.5
		l0.3-0.1l0.3-0.2l0.2-0.2l0.2-0.2l0.2-0.2l0.1-0.2l0.4-1.3l0-0.3l0-0.4l-0.2-0.3l-1.7-0.3l-0.8-1.1l0-0.3l-0.2-0.3l-0.3-0.3
		l-0.4-0.2l-0.5-0.1h-0.2l-0.3,0l-0.5,0.1l-0.2,0l-0.1-0.2l0.4-0.5l0.5-0.2l3-0.5l0.3,0l0.4,0.1l0.4,0.2l0.2,0.2l0.2,0.3l0.2,0.5
		l0.6,0.7l0.3,0.3l0.4,0.3l0.4,0.1l0.3,0l0.3,0l0.4-0.1l2.9-1.5l0.3-0.3l0.3-0.4l1.5-2.2l0.2-0.4l0-0.3l-0.1-1.9l0.3-0.3l0.4-0.3
		l1.9-0.9l0.6-0.2l0.9,1l0.2,0.2l0.1,0.2l0.1,0.3l0,0.3l0.1,0.3l1.8,2.2l0.2,0.2l0.5,0.4l0.4,0.3l0.5,0.1l0.3,0l0.5-0.2l1.9-0.8
		l2.2-1.2l0.2-0.1l0.2-0.3l1.9,0.7l1.3,0.8l0,0.2l0,3.4l-0.1,11.4l0,1.5l0,4.1l0,7.9l0,3.8l0,8.2l0,0.5l0,4.7L313.2,680z
		 M211.6,569.7l-0.2,0l-1.2-0.6l-0.3-0.4l0.5-0.8l0.5-0.4l1-0.6l0.4-0.2l0.4,0.2l0.6,0.3l-0.8-0.9l-0.4-0.1l-0.5,0.2l-1.4,1
		l-0.6,0.1l-0.4-0.6l0.1-1l0.3-2.1l-0.6-2.3l0.6-3.3l0.7-0.6l1-0.7l2.1-2.5l-0.7,0.2l-1,1.2l-1.8,1.9l-1.3,0.8l-0.3-0.5l-0.1-0.9
		l-0.6,0.6l-0.1,0.6l0,1.1l0,0.8l0.3,0.6l0.4,0.5l-0.4,2.9l-0.5,2l-0.6-0.1l-1.5-1l-1.2-2.1l-1.3-2.7l0.4-1.3l-0.3-1.5l-0.6-0.9
		l-0.7-0.6l-0.6,0.2l-0.5,0.3l-0.4-1.2l-0.1-0.7l0-1.2l0.6-0.7l0.4-0.1l0.4,0.1l0.9,1.3l0.2,0.6l0.6,1.1l1.3,1.5l0.5,0.3l0.1,0
		l0-0.2l-0.6-0.9l-0.6-0.7l-0.3-0.3l-0.3-0.5l-0.7-1.5l0.1-1l0.8-0.2l0.4,0.4l0.9,1.3l0.5,0.2l1.4-1.7l0.2-0.4l-0.4-0.9l0.6,0.4
		l1.3,1.4l1,1.1l0.5-1l1-4.2l-1-1.1l-0.6-0.5l-0.4-0.2l-0.3-0.5l-0.9-1.7l-0.6-1.5l0.2-1l1.2-0.8l2.3-1.4l1.6-0.4l3.3,0.7l0.3,0.9
		l0.4,3.2l0.4,1l0.1,0.5l-0.1,2.7l0.5,2.3l0.1,0.5l0,1.8l-0.4,2.7l-0.3,1l-0.4,0.6l-0.2,0.8l0.4,1l-0.8,0.8l-0.8,1.5l0,0.6l1.1-1
		l-0.1-0.4l0-0.5l1-0.2l0.4,0.4l0.4,0.7l0.1,1.4l-0.9,4.3l-0.2,0.3l-1,1.1l-1.4,1.1l-0.5,0.1L211.6,569.7z M314.4,693l-0.4,0
		l-0.4-0.1l-0.3-0.4l-0.3-0.7l-0.4-0.3l-0.5,0l-0.6,0.4l2.3,2.1l0.9-0.2l0.5-0.3l0.4-0.2l0.5-0.1l0.8,0.1l1.1,0.4l3,1.3l0.3,0.5
		l-0.1,0.7l-0.3,0.5l0.7,0.2l1-0.1l-0.7,1.3l1,1.5l0.5,0.2l0.8,0.1l-0.2,2l-1.2,1l-0.2,0.2l-0.1,0l-0.5-0.1l-0.2-0.4l-0.5-0.7
		l-1.3-1.3l-0.7-1.2l0.2-0.9l-1.8-1.3l-0.3-0.1l-0.6,0.6l-1,0.1l-1.1-0.9l-1.1-0.1l-2,0l-0.7,0.7l-0.9,0.3l-0.4,0l-0.7-0.5l-0.7-0.8
		l-0.5-0.8l0.5-0.7l1.1-0.3l0.4-0.1l0.4,0.2l0.6-0.1l0.2-1.3l-2.1,0.7l-0.2-0.5l0.3-1.4l0.5-1.3l0.7-0.6l0.2-0.5l-2.6,1.7l-1,0.2
		l-1.9-0.5l-0.4-0.2l-0.5-0.4l-0.4-0.5l-0.5-1.6L301,689l-0.4,0.1l-0.4,0.2l1-0.1l1.1,0.1l0.5,1.5l-1.8,0.6l-0.3,1l1.4,1.9l0,1.5
		l1.5,0.3l1.2,0.1l-0.1,1.5l-0.3,0.3l-2.6-0.6l-1.7,0.3l-1.1-2.2l0.4-0.9l0.9-0.2l0.3-0.2l-1.2-0.6l-0.5,0l-1.3,1l-0.6-1.1l-1.5-0.6
		l0.1-0.8l0.5-0.8l1.3-0.9l0.5-0.1l0.5-0.2l0.4-0.5h-0.7l-0.7,0.4l-1.5,1l-2.5,0.6l-0.4,0l-1-0.8l0.9-0.1l0.3-0.3l-1-0.9l-1.8-0.1
		l-0.3-0.3l0.4-0.7l1.3-1.3l0.6-0.3l1.7-0.3l2.5-0.2l4.6-0.8l2.8-0.6l3.4-0.3l2.6,0.1l0.4-0.1l1.2-0.8l1.3-0.2l2.4-0.2l1.8,0.6
		l1,1.2l0.3,1l-0.2,0.7l-3.8,1.5l-0.3,0.4l-1,0.2l-2-0.5l-0.9-0.5l-0.6-0.5l-0.5-0.4l-0.3-0.2l-1.9-1.1h-0.3l-0.3,0.6l1.6,1.5
		l1.2,0.6l1.9,1l3,0.1l2.5,0l1.1,0.1l1.7,1l1.1,1.1l-0.1,0.5l-4.9,0.6L314.4,693z M235.7,656.6l0.8-0.5l0.2-2.3l-2.2,0.1l-0.7,0.5
		l-0.6,0.3l-0.5,0.1l-1.4,0l0.8-0.5l0.5-0.2l0.3-0.3l-0.2-1l-0.5,0l-0.7,0.1l-0.5-0.1l-0.4-0.3l0-1l0.2-0.5l0.3-0.2l0.7-0.1l0.4,0.3
		l0.3,0l0.4-0.2l0.5-0.4l0.3,0l1.3,0.6l0.3,0.4l0.2,0.5l0.4,0.6l0.5,0.3l1.4,0.4l0.5,0l1.5,0l1.5-0.2l0-0.6l-0.5,0l-0.3,0.3
		l-1.1,0.1l-1.1-0.1l-0.5-0.1l-1.2-0.3l-0.5-0.3l-2-2.8l-0.4-0.9l0.7-0.1l0.6,0.2l0.9,0.4l3.1,0.5l-0.4-1.2l-0.7-0.9l1.6-0.5
		l1.2,0.1l1.5,0.5l0.6,2.6l-0.3,1.1l-0.3,0.9l0.5,1.3l1-2.5l0.1-0.8l-0.5-0.9l-0.4-0.9l1.2,0.4l0.9,0.9l1,2l1.4-1l1.7,0.2l0.8,0.4
		l0.6,1l-0.1,0.7l-0.5,0l-0.5,0.2l-0.3,0.5l0.7,1.6l0.6-0.7l0.6-0.6l1.8,0.6l0.4,0.3l1.6,1.8l-0.6,0.3l-0.3,0.1l-0.3,1l-0.5,0.3
		l-0.4,0l-1.3-0.3l-1.1,0.8l0,1.7l0.3,0.2l0.7,0.3l0.5,0.1l-0.1,1.1l-1.7,0.2l-1.7,1.3h-0.4l-0.4-0.1l-0.7-0.7l-1.4,0.6l-1.9,1.1
		l-0.9,0l-2-0.9l-0.5-0.5l0.3-0.4l1.9,0l1.9-1.1l0.8-4.1l-1.2-0.6l-0.5,0.3l-1.1,0.8l-0.5,0.2l-1.5-0.1l-0.1-0.5l-0.1-0.6l-0.6-0.2
		l-0.7,2.5l0,0.6l-0.5,1.7l-1.5-0.6l-0.6-1.3l-0.6-1.3l-0.4-1L235.7,656.6z M322.7,682.9l1.6,0l1.7,0.2l1.4,0.1l2.3,0.1l1-0.1l0.4,0
		l2.1,0l0.7,0.1l1.1,0.2l0.6,0.2l0.6,0.2l0.4,0.2l0.6,0.3l0.3,0.3l1.9,2.5l0,1.6l-0.4,1.1l-0.2,0.4l-0.2,0.2l-2.2,2.5l-0.2,0.1
		l-0.7,0.1h-0.2l-1.7-0.4l-0.3-0.1l-0.4-0.2l-0.2-0.2l-0.1-0.3l0-0.4l0.3-0.4l0.2-0.3l0-0.3l-0.1-0.2l-0.3-0.3l-0.3-0.2l-0.4-0.1
		l-0.5-0.1l-0.3,0l-0.3,0.1l-0.6,0.2l-0.2,0.2l-0.2,0.2l-0.2,0.4l-0.2,0.6l0,0.6l-0.2,0.2l-0.3,0l-2.4-0.2l-0.3-0.1l-0.9-0.5
		l0.2-0.3h0.2l0-0.4l-0.5-0.8l-0.3,0.1l-2.2,1l-0.5,0.3l-0.1,0l-0.4,0L322,691l-0.2-0.1l-0.3-0.3l-0.1-0.2l-0.7-2.7l0.1-0.4
		l-0.4-2.3l-0.3,0.1l-1.5,0.1l-0.5-0.5l-0.2-0.9l0.3-0.3l0.2-0.1l2.2-0.3L322.7,682.9z M234.7,643.3l1.1-0.2l0.2,0.1l1.2,0.7
		l1.9,1.1l0.2,0.3l-0.2,0.3l-0.2,0.1l-0.2,0l-1.9-0.1l-4.1-0.9l-0.2-0.7l-0.1-0.3l-1.1-0.5l-0.5-0.9l-1.9-1.6l-0.3,0.1l-1.6-1.4
		l-1-1.1l-1.4,0.3l-0.7,0.3l-0.8,0.4l-3.9-0.1l-0.4-0.2l-0.4-1.4l-1.2-1.3l-0.3,0l-1-0.2l-1.3-0.9l-0.1-0.3l0.1-0.4l0.3-1.1
		l-0.5-0.6l-0.2-0.1l-0.4-0.1l-0.8-0.3l-0.2-0.1l-0.9-1l0.7-0.9l0.2,0l0.8,0.5l2.4,2l0.9,1l0.6,1.3l0.7,0.7l1.8,0.4l0.2-0.3l0.7-0.2
		l1.1-0.2l1.7,0.6l2.1,1.1l1,0.8l0.7,0.4l1.2,0.5l1,0l0-0.5l0.8,0.2l0.7,0.8l0.1,0.2l0.3,1l-0.2,0.3l-0.3,0.3l-0.2,0.3l0.6,1.4
		l0.2,0.3l0.3,0.1l0.6-1l-0.2-0.4l-0.2-0.5l-0.2-0.8l0.2-0.3l0.2,0l0.3,0.1l0.5,0.2l1.8,2l0.1,0.3L234.7,643.3z M269.4,661.1
		l0.4,1.5l1.3,0.3l1.5-0.6l1.1,0.7l0.2,0.3l0.3,1.8l0.1,2.2l-2,2.7l-0.2,0.2l-0.3,0l-0.3-0.3l-0.6-0.7l-0.9-0.2l-1.6-0.6l-1.6-2.5
		l-0.1-0.4l0.1-0.4l0.2-0.2l0.5,0l0.2-0.1l0.1-0.2l-0.6-0.9l-1.4,1l-0.6,1.6l-0.1,0.3l0,0.5l-1.7-0.3l-0.3-0.2l-0.3-0.8l-0.2-0.5
		l-0.1-0.5l0.1-0.3l1-1l-0.4-2.8l0.2-0.5l0.3-0.4l0.3-0.2l0.7-0.1l1.7,0l1.5,0.6l1.3,0.6l0.2,0.1L269.4,661.1z M281.9,666.3l-0.2,0
		l-1.4-0.5l-0.7-0.3l-0.6-0.3l-0.2-0.2l-1.5-1.2l-0.3-0.3l-1-1.6l-0.3-2.4l0-0.3l0-1.4l0.1-0.2l0.9-0.6l0.8-0.3l0.3,0l1.4,0.4
		l0.4,0.3l0.2,0.1l0.2,0l0.3-0.2l0.2-0.3l0-0.3l-0.2-0.3l-0.3-0.3l-0.2-0.1l-0.7-0.3l-0.2-0.2l-0.1-0.3l-0.1-1.6l0.1-0.3l0.5-0.1
		l0.2-0.1l0.2-0.1l0.3-0.2l0.4-0.3l0.2-0.3l0.1-0.2l0.1-0.4l0.1-0.5l0.1-0.3l0.1-0.2l0.3-0.2l0.8-0.1l0.3,0.2l-0.1,1.8l-0.1,0.3
		l-0.1,0.3l0,0.3l0,0.5l0,0.3l0,0.3l0.8,3.3l1,2.1l0.6,1.4l-0.1,0.4l-0.3,0.3l-0.3,0.1l-0.6,0l-0.2,0l-0.3-0.1l-0.3-0.1l-0.5-0.3
		l-0.5-0.4l-0.4-0.6l-0.2-0.2l-1.6-1.3l-0.1,0.3v0.3l0.2,0.8l0.1,0.2l0.1,0.2l0.3,0.4l0.3,0.3l0.2,0.2l0.3,0.5l0.7,2l0.1,0.4
		l0.3,1.8L281.9,666.3z M262.9,659.4l-0.8,0.7l0.2,0.3l0.4,0.3l0.6,2l-0.1,0.4l-1,1.2l-0.3,0.3l-0.2,0l-0.2,0l-0.6-0.2l-0.2-0.1
		l-0.2-0.2l-0.3-0.3l-1.4-1.9l0-0.4l0.1-0.5l-0.1-0.2l-0.3,0l-0.2,0.3l0,0.3l0.1,0.3l0.6,1.7l0.6,0.7l0.2,0.1l0.4,0.2l1.6,1.8l0,0.4
		l-0.2,0.3l-1.3,1.8L260,669l-0.2,0l-1.4-0.3l-0.3-0.5l0.2-1.3l-2.6-2.3l-1.5-1.4L254,663l-0.2-0.3l-0.1-0.2l-0.5-2.6l-0.1-0.5
		l0.1-0.4l0.7-0.1l0.2,0l0.2,0l1,0.4l0.2,0.2l0.2,0.5l0.7,0l0.9-1.8l0.3-0.7l0.4-0.2l0.3-0.1l3.7,1.2l1.1,0.5l-0.1,0.4L262.9,659.4z
		 M206.7,575.1l-0.3,0.5l-2,2.3l-0.2,0.2l-0.4,0.1l-1.2-0.1l-0.2-0.1l-0.1-0.2v-0.3l0.2-0.4l0.6-0.3l0.5-0.5l0.7-0.9l-0.2-0.2
		l-1.1,0.3l-0.8,0.5l-1.7,0.6h-0.2l-0.2-0.2l0-0.4l0.2-1.5l0.4-1.2l0.4-1.1l0.1-0.3l0.2-0.2l0.2-0.1l0.3,0l0.3,0.1l1.1,0.4l0.1,0.2
		l-0.2,0.2l-0.2,0.1l-0.5,0.1H202l-0.1,0.2l0.2,0.4l0.2,0.2l0.7,0.3l1.3,0.3l0.9-0.1l-0.1-1.1l-0.2-0.7l-1.1-0.3l-1.2-0.7l-1.3-1
		l-0.3-0.8l1.4-0.9l0.3,0l2.6,0.6l0.2,0.1l2.2,2.3l-0.8,0.7l-0.2,0.3l-0.1,0.2l0.7,0l2.7-0.6l0.3-0.6l-0.2-0.3l0.7-0.3l0.2,0.3
		l0.2,0.5l0,0.8l-0.3,0.7l-3.2,1.6l-0.2,0.1L206.7,575.1z M212.3,593.3l-2.7-1.1l-1.2-1.9l-0.1-0.2v-0.4l0.1-0.3l0.4-1l0.2-0.1
		l1,0.1l1.9,0.4l0.9,0.3l1.2-0.6l0.1-1.8l0-0.4l-0.2-0.3l-0.4-0.4l-0.2-0.1l-0.3-0.2l-0.1-0.2l0.1-0.2l0.4-0.2l0.6,0.1l1.1,0.5
		l1,0.6l1.3,1.2l0.1,0.3l0.1,0.4l0.4,3.7l-0.3,1.3l-0.2,0.2l-0.2-0.1l-0.1-0.5l-0.3-0.8l-0.5-0.6l-0.3-0.1l-0.2,0l-1.9,1l-0.3,0.9
		l-0.1,0.2L212.3,593.3L212.3,593.3z M284.8,682.7l0.5,0l0.2,0.2l-2.2,0.9l-0.7,0.1l-0.3,0.2l0,0.4l0.1,0.4l-0.2,0.2l-1.8,0.3
		l-0.6,0l-0.4-0.1l-0.4-0.2l-0.2,0.1l-0.2,0.4l1.3,0.5l2.7,0.3l2.1-0.3l0.3,0l0.9,0l0.2,0.1l0.1,0.5l0.2,1.5l-0.5,0.4l-0.4,0
		l-0.2-0.1l-0.2-0.2l-0.2-0.4l-0.4-0.4l-0.3-0.1l-0.2-0.1l-0.6,0.4l-0.1,0.6l0.2,0.2l0.4,0.2l0.4,0l0.2,0.1l0.1,0.2l-0.2,0.3l-2.4,1
		l-0.3,0l-0.2-0.2l-0.1-0.3l0-0.5v-0.6l0.3-0.5l-0.9-1l-1.5,1.1l-0.4-0.1l-3.6-1.2l-1.2-0.8l-0.1-1.9l0.2-0.2l0.2-0.1l1.8-0.3
		l1.4,0.3l0.7,0.2l0.8,0.3l2.1,0.1l0.3-0.1l-0.9-0.3l0.1-0.3l1.7-0.8l0.2-0.1l1,0L284.8,682.7z M220.8,587.5l-0.4-1l-0.2-0.2
		l-0.4-0.2l-0.7,0.3l-0.1,0.2l-1.4-0.5l-1.6-1.1l-0.2-0.2l-0.8-1.5l-0.1-0.3l-0.1-0.4l0.1-0.3l1.2-1l1.2-1l-1.2-0.5l-0.2,0l-0.6,0.2
		h-0.2l-1.8-0.8l1-0.8l0.2-0.1l0.5-0.3l0.3-0.1l0.2,0l2.8,1.6l1.5,2.9l0.6,1.3l0.9,2l0.1,0.5l0,0.5l-0.2,0.7l-0.2,0.1L220.8,587.5z
		 M292.2,686.3l0.1-0.7l0-0.3l-0.3-0.5l-0.5-0.1l-0.1-0.4l0.4-1.5l0.2-0.1l1-0.3l0.2,0l1.8-0.3l0.9,0l4.7,0.9l0.5,0.1l2.8,0.8
		l0.6,0.5l-0.3,0.2l-0.5,0l-3.1,0.7l-1.6,0.4l-2.4,0.4l-1.8,0.3L292.2,686.3z M225.6,630.5l-0.2,0l-0.2-0.1l-2.2-2.2l-0.1-0.3l0-0.2
		l0.4-0.9l0.2-0.2l1-1l2.6-2.2l1-0.6l0.2,0l0.2,0.1l0.2,0.2l0.2,0.3l0.7,1.3l-1,2.9l-0.9,1.7l-0.1,0.2l-0.2,0.3l-0.3,0.1l-0.3-0.1
		l-0.2,0l-0.6,0.3L225.6,630.5z M207.8,601.6l-0.2,0l-0.4-0.2l0.1-0.6l1.2-0.8l0.9-0.3l0.3-0.2l1.2-1.2l0.1-0.3l-0.2,0l-1.8,0.9
		l-0.3,0.2l-0.3-0.1l-0.2-0.3l-0.1-0.3l0.1-0.3l0.1-0.2l2.6-2.4l1.3-0.3l1.7-0.1l0.7,0.8l0.1,0.2l0.4,1l-0.1,1.9l-0.2,0.3l-0.7,0.7
		l-0.2,0.1h-0.4l-0.2-0.1l-0.6-1.7l-0.7,0.3l-0.3,0.7l-0.7,1.3l-0.2,0.1l-0.7,0.1l-0.6,0l-0.9,0.1l-0.3,0.1L207.8,601.6z
		 M202.2,586.1l-1.6-0.4l-0.3-0.1l-0.2-0.2l-1-2.3l0.1-0.3l0.8-0.7l0.5-0.3l0.2,0l0.2,0l0.4,0.3l0.1-0.6l-0.5-1.1l-0.5-0.3l-0.6-0.3
		l0-0.3l0.8-0.6l0.4,0l3.4,0.6l1.4,0.1l0.2,0.2l-0.1,0.3l-1.7,1.9l-0.3,0.1l-0.2,0l-0.3-0.1l-0.3-0.1l-0.3-0.2l0,0.6l0.1,1.5
		l0.1,1.7l-0.3,0.7l-0.3,0.2l-0.3,0.1L202.2,586.1z M204.7,566.4l-0.3-0.4l-1-1l-0.4-0.1l0.1,0.7l0.1,0.4l0,0.2l-0.2,0.1l-0.4-0.1
		l-0.5-0.5l-0.3-0.3l-0.4-0.7l0-0.3l0.1-0.3l-0.9-0.6l-1.9,1.5l-0.3-0.1l-0.5-0.9l-0.1-0.2l-0.2-2.7l0.7-0.8l3-0.2l0.2,0l0.2,0.1
		l0.2,0.3l0.6,0.8l1.8,3.2l0.1,0.2l0.3,1.6L204.7,566.4z M208.2,616.3l-0.3-0.5l-1.2-2.9l1.4-3.3l0.3-0.3l0.5,0.5l0.1,0.2l-0.2,0.3
		l0,0.3l0.4,0.1l0.5-0.1l0.3-0.1l0.4-0.4l-0.5-2.8l-0.5-1.1l-0.4-0.2l-0.2-0.2l0-0.3l0.2-0.3l0.3-0.2l0.2-0.1l0.3-0.1l1,0.3l0.3,0.3
		l0.1,0.2l0.2,2l0.1,0.8l-0.3,1l-0.8,2.8l-0.9,2.3l-0.8,1.3l-0.2,0.3l-0.2,0.1L208.2,616.3z M203.4,548.4l-0.9-2.5l-0.2-0.3
		l-1.7,0.7l-0.5,0.9l-0.1,0.2l-0.2,0.2l-0.4,0l-2.3-1.6l-0.1-0.2l-0.1-0.2l-0.1-0.4v-0.3l0-0.3l0.1-0.3l0.3-0.7l0.2-0.2l1.3-0.4
		l2.9,0.2l0.3,0.1l0.6,0.2l0.2,0.1l0.3,0.4l1.3,3.1v0.3l-0.6,0.6l-0.2,0.1L203.4,548.4z M208.5,552.7l-1.6-1.6l-2.4-0.7l-0.7-0.4
		l0-0.4l0.2-0.3l0.5-0.7l0.2-0.3l1.1-1.2l2.4,0.1l0.4,0.3l0.9,0.9l0.1,0.8l0,0.3l-0.6,3.6l-0.2-0.2L208.5,552.7z M202.5,605.2
		l-0.1-0.3l0-1.8l0.7-0.6l0.7-1l0.2-1.1l0-1.6l0-0.4l0-0.3l0.1-0.3l0.1-0.2l0.8-0.6l0.3-0.2l0.2,0l2.1,1.6l0.1,0.7l-0.1,0.7
		l-0.1,0.3l-0.3,0.2h-0.2l-0.2-0.2l-0.3,0l-0.2,0.1l-1,2l0.1,0.4l0,0.4l0,0.4l-0.1,0.3l-0.2,0.4l-2.2,1.2l-0.2,0.1H202.5z
		 M221.8,622.7l-0.7-0.5l-0.6-1l-0.1-1.8l0.1-0.2l0.3-0.2l0.2-0.1l0.3,0l0.4,0.2l0.2,0.2l0.4,0.2l0.2-0.1l-0.7-1.3l-0.2-0.2
		l-0.4-0.3l-1.4-0.4l-0.9,0.1l-0.3,0.1l-0.4,0l-0.3-0.1l-0.5-0.3l0-0.3l1.1-0.9l0.3-0.1l0.3-0.1l0.2,0l0.2,0.1l0.2,0.1l1.3,1l1.1,1
		l0.7,0.7l2.5,2.7l0,0.3l-0.7,0.5l-2.1,0.9l-0.5,0L221.8,622.7z M199.1,552.6l-0.2,0l-1.9-0.9l-0.3-0.2l-0.1-0.2l0.9-1.5l0.9-0.5
		l0.2,0l0.3,0.1l0.8-0.7l0.5-1.1l0.8-0.9l0.3-0.2l0.3-0.1l0.2,0.1l0.2,0.5l0.6,1.5l0.1,0.3l-0.3,0.6l-0.3,0.4l-0.2,0.2l-2.4,2.2
		L199.1,552.6z M212.7,588.4l-1.3-0.1l-0.7-0.2l-1.7-0.5l-0.2-0.3l-0.4-1.6l0.1-0.8l0.1-0.3l1-1.1l1.2-0.3l0.2,0.1l1,0.8l1.4,2.6
		l0,0.3l-0.2,0.8l-0.2,0.5L212.7,588.4z M221.5,612.5l-1.1-0.2l-2.4-1.2l-0.9-1l-1.2-3.1l2.1,0.6l3.3,2.3l1.4,0.8l0,0.3l-0.7,1.3
		l-0.2,0.2L221.5,612.5z M273,684.1l-0.3,0l-1.2-0.5l-0.9-0.7l-2,1.1l-0.3,0.1l-1.1-0.3l-0.8-1.5l0.9-1.4l0.8,0.1l2.6,0.5l1.1,0.3
		l0.5,0.3l0.6,0.2l0.4-0.1l0.4-0.2l0.3-0.3l0.2,0l0.9,0.5l0.5,1.2l-0.3,0.1l-0.5,0L273,684.1z M228.8,618.8l-0.1-0.2l-0.5-0.7
		l-0.8-1l-1.1-1l-0.3-0.2l-1-0.6l-2.1-1.1l-0.2-0.1l-0.3-0.2l0-0.8l0.3-0.9l0.6-0.4l0.2,0l0.3,0.2l2.8,2.2l0.9,0.7l0.6,0.5l0.2,0.3
		l0.9,1.7l0.4,1.3l0,0.4l-0.1,0.4l-0.3,0L228.8,618.8z M223.9,609l-0.4-0.1l-0.2-0.1l-2.3-1.5l-0.3-0.3l-0.3-0.3l0-0.4l0.1-0.2
		l0.8-0.1l0.7,0l0.9-1.3l-0.3-1.4l0.1-0.2l0.2-0.1l0.2,0l0.3,0.2l2.2,4.8l0,0.4l-0.2,0.2l-0.2,0.1l-0.4,0.2l-0.3,0.1l-0.2,0
		L223.9,609z M334.8,705l0-0.8l-0.2-0.1l-0.9-0.2l-1,0.2l-1.5-0.5l-0.1-0.6l0.2-1.2l1.9-1.8l1-0.4l0.3,0l1.4,3.7l0.3,1l-0.1,0.3
		l-0.4,0.3l-0.4,0.1L334.8,705z M209.8,616.9l-0.1,0l-0.3-0.5l1.7-5l0.1-0.3l0.3-0.7l0.2-0.3l0.2-0.2l0.2,0l2.2,0.3l-0.1,0.3
		l-2.7,5.2l-0.2,0.2l-1.4,1.1L209.8,616.9z M252.5,662.7l0.9,0.7l0.5,0.9l-0.7,1.3l-0.8,1.3l-0.3,0.1l-1.8,0.1l-0.6-0.1l-0.4-0.2
		l-0.2-0.2l-0.2-1l2.1-2.7l0.3-0.3l0.6-0.3l0.4,0l0.2,0.1L252.5,662.7z M226.9,622.7l-0.7-0.8l-0.5-1.3l-1.4-1l-1.3-1.4l-0.1-0.2
		l-0.1-0.5l0.2-0.3l0.5-0.3l0.2,0l0.8,0.5l0.7,1l2.3,1.1l0.3,0.3l0.2,0.3l0.1,0.3l0.4,1.6l-0.1,0.4l-0.2,0.3l-0.7,0.3l-0.4,0
		L226.9,622.7z M233.7,646.3l0.4,0.1l0.2,0.3l-1.2,1.4l1.1,1.3l0.1,0.4l-1.6,0.8l-0.3-0.1l-2.2-1.1l-2-1.3l-0.3-0.3l-0.3-0.5
		l0.1-0.3l0.3,0l0.6,0.6l0.5,0.4l0.3,0.2l0.3,0.1l0.2,0l0.7,0l1.4-0.5l0-0.3l-0.2-0.1l-0.5-0.2l0.2-0.9l1.9,0l0.2,0L233.7,646.3z
		 M204.2,546.6l-0.3-0.6l-1.4-3.6l0.5,0l0.8,0.2l0.2,0.1l0.5,0.2l0.6,0.3l0.6,0.4l0.2,0.2l0.1,0.2l0.2,0.4l0.1,0.2l0.3,1.1l0,0.3
		l-0.1,0.2l-1.7,0.6l-0.3,0L204.2,546.6z M217.1,595.5l-2.2-0.9l-0.2-0.2l-0.5-1.2l0.1-0.6l1.8-1.1l0.3,0l0.2,0.1l0.2,0.3l1,1.8
		l0.1,0.2l0,0.3v0.6l-0.4,0.8l-0.2,0L217.1,595.5z M219.6,595.7l-0.7-3l-0.2-1.3l-0.2-2.1l0.1-0.2l0.4,0l0.3,0.6l1,2.8l0.6,2
		l0.1,0.8l-0.9,1l-0.2,0.1l-0.2,0l-0.1-0.2L219.6,595.7L219.6,595.7z M285.9,667.4h-0.2l-0.3,0l-2.2-0.8l-0.3-0.2l-0.7-0.8l-0.1-0.2
		l0-0.3l0.1-0.4l0.2-0.3l0.2,0l0.3,0.1l2.9,1l1,0.5l0.3,0.4l0,0.4l-0.2,0.3l-0.4,0.4l-0.2,0.1L285.9,667.4z M236.3,664l-1-0.5
		l-2-0.8l-0.2-0.3l1.3-1l0.6,0l0.5,0l1.1,0.1l0.2,0.1l0.9,0.4l0.1,0.3l0.3,1.2l-0.2,0.3l-0.3,0.1L236.3,664z M342.5,691l0.3,0.3
		l0.4,1.2l-0.3,0.6l-0.5,0.4l-0.3,0.1l-1.8-0.1l-0.8-0.1l-0.2-0.1l-0.2-1.2l0.5-0.7l0.4-0.2l1.3-0.4l0.5,0l0.3,0.1l0.3,0.1
		L342.5,691z M239,614.8l-0.1-0.5l0.1-0.4l0.1-0.3l0.1-0.2l0.7-1.3l0.2-0.1l1.3-0.6l1.3-0.4l-0.1,0.7l-1.6,2.9l-0.5,0.2l-0.9,0.3
		l-0.3,0l-0.2-0.1L239,614.8z M223,599.4l-0.2-0.1l-0.2-0.2l-0.3-1.5l0-0.2l0.2-1.1l0.1-0.2l0.2-0.1l0.3,0l1.2,0.2l0.4,0.2l0.1,0.3
		l0.2,1.2l0,0.5l-1.6,1.2L223,599.4z M205.5,543.1l-0.1,0l-1.8-1l0-0.3l1-1.1l1.7-1.7l0.2,0l0.1,0.3l0.1,0.2l0.1,0.4l0,0.3l0,0.3
		l-0.4,1.6l-0.4,1l-0.2,0.2L205.5,543.1z M211.7,579.6l-0.4-0.1l-0.1-0.2l0.5-2.1l0.9-0.6l0.2-0.1l0.3,0l1,0.1l1,0.3l0,0.2l-0.2,0.3
		l-1.4,1l-1.4,1l-0.2,0.1L211.7,579.6z M217.1,560l-0.2-0.8l-0.2-2l0.1-0.9l0.1-0.3l0.2-0.1l1,0.8l0.4,0.3l0.2,0.2l0.7,1.4l-0.1,0.2
		l-2.1,1.5L217.1,560z M205.9,611.3l-0.1-0.1l-0.1-0.2l0.4-2.2l0.3-0.9l0.1-0.2l0.3-0.3l0.4-0.2l0.3-0.1l0.4,0.1l0.3,0.3l0.1,0.4
		l-0.2,0.9l-0.3,0.9l-0.3,0.7l-0.2,0.3l-0.2,0.2l-0.7,0.5l-0.4,0.1L205.9,611.3z M222,601l-1-0.5l-0.7-0.4l-0.2-0.2l-0.2-1.2l0-0.7
		l0.1-0.4l1.3-0.4l0.2,0.1l0.9,2l0.1,0.2l0,1.2l-0.1,0.3l-0.2,0L222,601z M347.3,692.3l-0.8-0.2l-0.2-0.2l-0.1-0.4l0-0.3l0.3-1
		l1.4-0.9l0.4,0l0.3,0l1.1,0.5l0.2,0.4l-1.5,1.7l-1,0.4H347.3z M282.9,681.3l0.4,0.1l0.3,0.1l0.4,0.5l-0.2,0.3l-0.2,0.1l-3.1,0.5
		h-1.2l-0.9-0.4l-0.2-0.3l0.2-0.2l0.6-0.3l1.8-0.4l1.2-0.1L282.9,681.3L282.9,681.3z M206.6,586.3l-0.2-0.2l-0.1-0.2l-0.4-1l0-0.4
		l0.5-1.4l0.2-0.1l1.3,0l0.1,0.2l0,0.3l-0.1,3l-0.2,0.1l-0.5,0L206.6,586.3z M249.7,671.2l-0.2-0.1l-0.8-1l-0.3-1l1.9-0.9l0.4,0
		l1.8,0.6l0.1,0.3l-0.2,0.5l-1.2,0.5l-0.2,0L249.7,671.2z M212.2,615.1l0.2-0.5l0.1-0.3l0.2-0.2l2.6-2.2l0.6,0.3l0.3,0.4l0,0.7
		l-0.2,0.5l-1,0.6l-2,1l-0.7,0.3l-0.2-0.1L212.2,615.1z M284.7,664.5l-0.2,0l-1.5-0.9l-0.5-0.4l-0.2-0.3l-0.1-0.3l0.1-0.2l0.2-0.1
		l2.8-0.5l0.2,0.2l0.2,0.5l0.1,0.5l-0.4,1l-0.2,0.5l-0.2,0.2L284.7,664.5z M226.9,651l-0.2-0.1l-0.3-1.2l0.2-1.9l0.2-0.2l0.2,0
		l2.1,1.3l0.3,0.3l0,0.3l-0.1,0.2l-1.7,1l-0.2,0.1l-0.3,0.1L226.9,651z M234,635.8l-0.5,0l-0.2,0l-0.6-0.5l-0.1-0.2l0.2-0.3l0.3,0
		l0.2-0.1l-0.6-0.3l-0.7-0.2l-1.3-0.1l-0.3,0l-1.5,0.3l-0.3,0.2l-0.2-0.2l0.9-0.7l2-0.4l2.4,0.6l0.2,0.1l0.7,0.7l-0.2,1L234,635.8z
		 M227.6,609.4h-0.2l-0.4-0.1l-0.3-0.2l-0.1-0.2l-1.4-2.5l0-0.5l0.1-0.2l0.4,0l1.1,0.5l0.9,1l0.5,1l0,0.3L227.6,609.4z M330.2,707.8
		l-0.5-1.2l-0.2-0.1l-1,0l-2,0.5l-0.2-0.1l-0.2-0.2l0-0.4l0.2-0.5l0.5-0.1l0.2,0l0.4,0.1l0.3,0.1l0.7,0.1l1.7,0l0.6-0.4l0.2-0.1
		l0.7,0.2l0.3,0.3l-0.5,1.2l-0.2,0.2l-0.8-0.2l-0.2,0L330.2,707.8z M340.1,685.1l0.8,0.2l1.8,0.6l0.2,0.2l0.7,1.9l-0.2,0.1L343,688
		l-3.7-2.2l-0.2-0.3l0.1-0.3l0.1-0.1l0.3,0l0.3,0.1L340.1,685.1z M211.8,621l-1-0.9l-0.2-1.2l2.9-0.6l0.4,0.1l0.1,0.2l-1.2,1.9
		l-0.5,0.3l-0.3,0.1L211.8,621z M227.8,599.2l-1.2-0.2l-0.2-0.1l-0.4-0.3l-0.3-0.9l0.1-0.2l0.4-0.4l0.7-0.5l0.3-0.1l0.3,0.1l0.3,0.2
		l0.2,0.2l0.2,0.2l0.1,0.2l0.1,0.4l0,0.5L228,599l-0.1,0.2L227.8,599.2z M207.6,541.2l-0.4,0l-0.2-0.2l0-0.3l0.6-1.3l0.3-0.3l1.4,0
		l0.8,0.1l0.5,0.2l-1.5,1.3l-0.3,0.2l-0.2,0.1l-0.5,0.1L207.6,541.2z M211.4,618l-0.3-0.1l-0.2-0.2l-0.1-0.2l0-0.5l0.2-0.5l2.9-1.5
		l0.2,0.5l-1.4,2l-1,0.4l-0.3,0.1L211.4,618z M328.3,700.8l-0.2-0.2l0.6-2.6l0.2-0.3l0.4-0.2l0.2,0l0.3,0.3l0.2,0.2l0.3,0.3l0.2,0.2
		l0.2,0.4l0,0.9l-0.8,0.6l-0.4,0.2l-0.4,0.1L328.3,700.8z M287.9,685.4l-0.2,0l-0.2-0.1l-0.2-0.2v-0.3l0.2-0.2l0.2-0.2l2.4-1.1
		l0.3-0.1l0.2,0l0.2,0.1l0.2,0.3l0,0.4l-0.6,0.8l-1.6,0.5L287.9,685.4z M223.3,642.9l-0.1,0.3l-0.7,1.1l-0.5,0.3l-1,0.3l-0.3,0
		l-0.2-0.1l-0.3-0.3l0-0.3l0.9-0.8l0.7-0.5l0.7-0.5h0.2l0.2,0.1l0.3,0.3L223.3,642.9z M336.3,707.6l-1.7-0.8l-1-0.7l0.1-0.3l0.2-0.1
		l0.3-0.1l0.9,0.1l1.2,0.3l0.6,0.7l0.1,0.9L336.3,707.6z M226.6,611.4l-1.3-0.2l-0.2-0.2l-0.1-1.1l0.5-0.9l0.2-0.1l0.2,0l0.2,0.2
		l0.2,0.2l0.3,0.3l0.7,1l-0.1,0.3l-0.3,0.3L226.6,611.4z"/>
	<path id="CL-TA" class="st0" d="M285.9,26.3l2.7-0.1l2.6-1.4l2.6-1.7h4.5l2.6,1.7l2.6-0.3l0.3-1.7l1.6-1.4h2.5l0,0l-0.2,0.4
		l1.1,1.7l1.9,1.2l0.7,0.5l1.4,1.3l0.3,0.2l0.6,0.2l0.4,0.1l0.5,0.2l1,0.8l0.8,1l-1.8,1.6l-0.3,0.4l-0.5,0.6l-1.4,1.4l0,0.6l1.1,0.6
		l1,0.7l0.7,1.3l-0.9,2.1l-0.5,0l-0.7,0.1l-2.1,0.5l-0.1,0.4l0.3,0.3l0.8,1.5l0.3,1.5l-0.5,0.2l-0.3,0.3l0,0.8l0.2,0.4l0.2,0.3
		l0.6,0.5l0.5,0.3l0.5,0.2l0.5,0.2l0.5,0.1l0.3,0.1l0.9,0.6l0.4,0.4l-0.1,0.3l-0.6,0.3l-0.3,0.2l-0.6,0.7l0,2.1l0.1,0.3l0,0l0,0
		l-1.2-0.1l-3-0.3l-1.5,0.2l-0.4,0.1l-0.3,0.2l-0.2,0.4l0.2,0.3l0.5,0.2l1.3,0.4h0.5l0.4,0l0.9-0.2l0.5,0.1l0.2,0.4l-0.1,0.6
		l-0.2,0.4l-0.7,1.1l-0.3,0.4l-0.2,0.4l-0.1,0.4v0.5l-1.5,0.6l-2.1,0.2l-4.5,1.2l-5.3,1.1l-1.2,0.2l-1.2-0.4l-1-0.1l-1.9-0.2l-0.4,0
		l-1.8,0.1l-0.2,0.1l0,0l-0.5-0.9l-0.1-0.5l0.4-0.5l-0.9-3l-0.4-0.8l-0.4-0.6l0.3-0.8l0.3-0.5l-0.1-0.8l-0.3-0.4l-0.3-0.2l-0.6-0.5
		l0.7-6.1l0.5-1.4l0.1-0.4l-0.4-0.9l0.2-1.1l0.2-0.4l0.2-0.4l0-1.2l0-0.4l-0.2-1l-0.6-4l-0.5-2.3l-0.6-1.8l-0.7-1.1L285.9,26.3z"/>
	<path id="CL-AN" class="st0" d="M315.4,51.7l0.4,0.1l0.4,0l0.5,0l3.2,4.5l0.7,1l0,4.8l0.3,0.3l0.5,0.6l0.3,0.5l0.3,0.7l0.2,1.1
		l0,0.3l0,0.6l0,0.5l0,0.7l1.5,1.3l0.4,0.2l0.5,0.7l0.3,2v0.5l-0.2,0.4l0.7,1.9l0.7,2l-0.6,2.4l0.1,1.8l1.4,0.8l3.6,0.4l4-0.7
		l2.5-0.5l1.3,1.2l1.7,1.6l-0.8,1.9l-0.8,1.8l-0.7,1.8l-0.2,0.5l-3.1,9.7l-5,1.9l-4.3,1.7l-4.8,1.8l-1,0.4l-0.4,0.8l-0.7,0.8
		l-0.8-0.1l-0.4,0.2l-1.2,1.6l-0.7,1l-0.5,0.9l-0.4,0.8l-0.1,0.5l0.4,0.9l0.8,0.4l2.4,3.5l-1.1,0.5l-1.1,0.2l-0.2,0.1l-0.3,0.4
		l-0.3,1.1l0,0l-0.9,0l-0.7,0.2l-0.5,0.3l-0.7,0.5l-0.6,0.5l-0.4,0.3l-0.4,0.1l-0.8,0l-0.6-0.1l-0.5,0.1l-0.6,0.2l-0.5,0.2l-0.4,0.2
		l-0.8,0.6l-0.3,0.8l-0.2,1.1l-0.3,0.6l-0.4,0l0.2,2.8h-4.9l-0.7,1.7l-1.6,0.3l-1.6,1.7l-2.6-1.7l-1.3-1.5l-0.2,0l-1.1-0.1l-0.5-0.1
		l-0.6,0l-0.6,0.2l-0.3,0.2l-0.6,0.3l-0.4,0.3l-2.1,1.1l-1.2,0.1l-1.5,0.2l-0.7,0.1l-0.5,0.1l-0.4,0.1l-0.3,0.1l-0.3,0.2l-0.9,0.6
		l-0.8,0.9l0,0l0.5-0.7l0.1-0.3l-0.1-0.5l-0.3-0.9l-0.5-0.4l-0.3-0.3l-0.5-1.2l0.5-1.7l0.3-0.7l0.8-1.5l1-1.1l0.6-0.4l1.4-1.7
		l0.3-1.7l0-0.9l-0.4-0.9l-0.8-0.9l0.1-2.1l-0.5-0.9l-0.3-0.8l-0.6-2l0.3-2.5l0.3-2.5l0.1-0.8l-0.2-0.3l0.3-1.3l0.3-0.8l0.2-0.3
		l0.1-1.1l-0.1-0.9l-0.3-0.6l0-0.5l0.2-1.9l0.2-1.1l0.5-0.6l0.4-0.3l0.3-0.4l0.3-0.7l0.2-0.4l0.1-0.4l0-0.6l-0.1-0.5l-0.2-0.5
		l-0.2-0.2l-0.6-0.3l-0.5-0.2l-0.4,0.1l-0.5,0.9l-1.4-0.2l0.4-1.9l0.1-2.3l0.3-2.5l0.6-0.6l0.6-0.2l0.1,0.7l0.3,0.4l1-0.2l0.5-0.2
		l0.3-0.3l0.3-0.3l0.2-0.3l0.5-1l0.4-0.8l-0.1-0.5l-0.1-0.3l-0.2-0.7l0.4-2.2l0.4-3l0.3-2.1l0.3-2.3l0.2-1l0.3-1.1l0.6-3.9l-0.1-0.5
		l0-1l0.3-0.8l0.8-0.6l0.1-0.8l0.5-1.6l0,0l0.2-0.1l1.8-0.1l0.4,0l1.9,0.2l1,0.1l1.2,0.4l1.2-0.2l5.3-1.1l4.5-1.2l2.1-0.2l1.5-0.6
		V56l0.1-0.4l0.2-0.4l0.3-0.4l0.7-1.1l0.2-0.4l0.1-0.6l-0.2-0.4l-0.5-0.1l-0.9,0.2l-0.4,0H310l-1.3-0.4l-0.5-0.2l-0.2-0.3l0.2-0.4
		l0.3-0.2l0.4-0.1l1.5-0.2l3,0.3l1.2,0.1l0,0l0.1,0.2l0.3,0.3L315.4,51.7z"/>
	<path id="CL-AT" class="st0" d="M314.3,119.6l-0.3,1.2l-0.1,0.3l0,0.5l0.1,0.4l0.7,1.9l0.9,1.6l0.1,0.4l0.6,2.5l0.9,4l-0.3,0.5
		l-1,0.8l-0.7,0.4l-0.4,0.3l-0.3,0.3l-0.2,0.7l-0.1,0.5l-0.1,0.9v0.3l0,0.8l0.1,0.3l0.2,0.3l0.5,0.6l1.7,1.8l2.3,3.1l0.1,0.3
		l-0.6,1.8l-0.5,0.3l-0.6,0.3l-0.3,0.1l-3.9,1.1l-0.8-0.5l-0.7-0.1l-0.7,0l-0.4,0.2l-0.7,0.9l-0.3,0.5l-0.2,0.5l0.2,0.6l-0.6,1.4
		l-2.3,3.8l-0.5,0.5l-0.7,1.6l-0.1,0.7l-0.6,2.1l-0.2,0.4l-0.2,0.4l-0.3,0.3l-0.5,0.1l-0.6,0.1l-0.6,0.3l-0.5,1l-0.2,0.7l-0.2,0.4
		l-0.8,0.9l-2.2,2.2l-1.2,0.9l-0.8,0.5l-0.1,2.3l-0.1,0.5l-0.5,0.3l-0.7,1.3l0,0.8l0.1,0.4l0.2,0.4l0.1,0.5l-0.6,1.4l-0.5,2.1l0,0.9
		l-0.1,0.4l-0.2,0.3l-0.5,0.3l-1,0.1l-1,1l-1.1,1.5l-0.1,1l0.1,0.4l0.4,0.8l0.6,1.8l0.1,0.2l0,0l-2-0.2l-2.9-1.1l-1.3-0.6l-2.3-0.6
		l0.1-0.4l0-0.6l-0.2-0.7l-0.2-0.3l-2.2-2.2l-0.4-0.3l-0.5-0.4l-0.5-0.3l-0.5-0.3l-0.5-0.1l-1.3,0.8l-0.7,1.1l-1.3,2.8l-2.6,0.3
		l-1.3-1.7l-1.1-2l-0.2,0.1l-0.3,0.1l-2,0.4l-0.6,0.1l-0.6,0l0,0l0.3-1.2l-0.5-2.1l0-1.3l0.1-0.4l0.6-0.5l1.5-1.3l1.3-1.4l0.1-0.9
		l0.1-1l0.4-0.7l0.5-0.6l1.1-2l0.1-1.8l0-1.3l0.3-3.1l0.6-1.9l0.4-0.9l0.6-1l0.6-0.7l0.7-0.3l0.9-0.6l0.4-2.2l-0.3-0.9l-0.5-1.6
		l-0.5-2.5l0.1-0.4l0.2-0.4l0.4-0.3l1-0.2l0.8-1l0.5-0.8l-0.3-1l-0.3-0.5l-0.1-0.4l2-4.3l0.2-0.5l0.2-2l0.7-2.1l-0.5-1.6v-0.5
		l0.2-1.3l0,0l0.8-0.9l0.9-0.6l0.3-0.2l0.3-0.1l0.4-0.1l0.5-0.1l0.7-0.1l1.5-0.2l1.2-0.1l2.1-1.1l0.4-0.3l0.6-0.3l0.3-0.2l0.6-0.2
		l0.6,0l0.5,0.1l1.1,0.1l0.2,0l1.3,1.5l2.6,1.7l1.6-1.7l1.6-0.3l0.7-1.7h4.9l-0.2-2.8l0.4,0l0.3-0.6l0.2-1.1l0.3-0.8l0.8-0.6
		l0.4-0.2l0.5-0.2l0.6-0.2l0.5-0.1l0.6,0.1l0.8,0l0.4-0.1l0.4-0.3l0.6-0.5l0.7-0.5l0.5-0.3l0.7-0.2l0.9,0l0,0l-0.1,0.1l-0.3,0.6
		L314.3,119.6z"/>
	<path id="CL-CO" class="st0" d="M265.8,180.7l0.6,0l0.6-0.1l2-0.4l0.3-0.1l0.2-0.1l1.1,2l1.3,1.7l2.6-0.3l1.3-2.8l0.7-1.1l1.3-0.8
		l0.5,0.1l0.5,0.3l0.5,0.3l0.5,0.4l0.4,0.3l2.2,2.2l0.2,0.3l0.2,0.7l0,0.6l-0.1,0.4l2.3,0.6l1.3,0.6l2.9,1.1l2,0.2l0,0l0,0.1l0,0.7
		l-0.1,0.4l-0.1,0.4l0.1,0.4l0.2,0.3l0.5,0.3l0,0.1l0.2,1.3l0,1.9l-0.2,0.9l-0.1,0.4l1,1.7l0.4,0.3l0.2,0.4l0,0.8l-1.1,2.2l-0.7,0.8
		l-1,0.4l-0.5,0.1l-0.4-0.1l-1.4,0.7l-1.3,2l-0.7,1.3l-0.3,0.7l-0.8,2.4l-0.2,1.1l-0.1,0.7l0.1,0.4l0.6,0.6l-0.1,0.6l-1.1,1.1
		l-1.1,0.3l-0.3-0.3L282,213l-0.2,0.4l-0.5,2.3l-0.1,2.4l-0.2,1l-0.1,0.6l2.1,4.5l0.2,0.3l0.3,0.3l0.3,0.2l0.6,0.1l1.1-0.1l0.3,0.2
		l0.8,0.8l0.1,0.5l-0.5,1.3l-0.7,0.1l-0.7,0.7l0.5,2.4l-0.1,0.6l0,0l-1.6,0.2l-0.5-0.2l-0.1-0.4l-0.3-0.8l-0.5-0.3l-0.5-0.1l-0.3,0
		l-0.5,0l-0.8-0.1l-0.8-0.5l0-0.4l-0.1-0.5l-1.1-0.6l-5.1,0.1l-0.5,0.7l-0.8,0.8l-0.3,0.2l-3.5,0.7l-0.7,0l0,0l-0.5-0.1l-0.8-0.3
		l0,0l-0.5,0l-0.4,0.2l-0.4,0.3l0,0l0.1-1.6l0.2-0.8l0.1-0.4l0.1-0.7l0-1.4l-0.1-2l-0.5-1l-0.4-1.7l0-1l-0.1-0.4l-0.9-3.4l-0.6-2.2
		l-0.1-0.3v-0.5l0.2-0.9l0.1-1.5l-0.2-0.6l-0.3-0.4l-0.1-0.4l-0.4-2.4l0-1.7l0.1-1.6l0-0.9l0.3-2.7l0.5-1.1l0.5-0.2l0.2,0.3l0.5,0.2
		l0.4,0l0.6-0.3l1.7-1.5l0.3-0.5l0.8-3.3l0.8-0.7l0-1.2l-0.5-0.4l-0.3-1l0.1-3.2l0.2-1.2l0.2-0.6l0-0.4l-0.5-1.5l-0.2-0.3l-0.4-0.3
		l-0.9-0.6l-0.4-0.2l-0.3-0.2l-0.2-0.4L265.8,180.7z"/>
	<path id="CL-RM" class="st0" d="M289.8,265.6l0-0.4l-0.1-0.3l-0.4-0.3l-0.8-0.3l-0.5-0.5l-0.1-0.4l0.1-1.1l-0.2-0.7l-0.3-0.2
		l-0.5,0l-0.5,0.3l-0.4,0.1l-1.2-0.3l0.2-0.9l-0.7-1.9l-0.4-0.3l-0.6-0.2h-0.6l-1.9,0.7l-0.7,0.3l-1.2,0.1l-0.5-0.1l-1.4,0.7
		l-2.2,2.2l-0.1,0.4l0.1,0.7l-1.4,0.3l-1.6,0l0,0l-1.4-1.7l-2.1-0.8l-1-1.7l-2.7,0.1l-1.6-0.6l0,0l0.9-0.5l0,0l0.5-1.6l0.4,0l0.9,0
		l0.8,0.2l0.5,0l0.8-0.8l0.7-2.3l-0.6-1.3l-0.2-1.2l0-0.3l0.4-0.2l1.2-1l0.5-0.6l0.1-0.4l0-1.2l0.2-0.4l1-0.1l1,0l1.2-0.7l-0.1-2.1
		l-0.2-0.8l0.2-0.6l0.3-0.1l1.9-0.6h2.3l1.6,0.3l0.9,0.3l0.7,0.6l0.2,0.7l0.6,0.7l0.4,0l1.1-0.8l0.4,0l1.2,1.1l1.7,0.7l1.4-1
		l0.8-0.4l0,0l0.2,0.4l-0.1,0.8l-0.2,0.5l0.1,0.4l1.6,2l0.4-0.1l0.3-0.5l0.5-0.4l0.4-0.1l0.5,0.1l1.2,0.6l0.5,1.8l-0.1,0.4l-0.4,0.4
		l-1,2l-0.6,3.8l0,0.8l0.3,1.1l0.6,3.5l0.5,2.4l-1.2,0.8l-0.8,0l-0.4-0.1l-0.5,0l-0.7,0.1L289.8,265.6z"/>
	<path id="CL-VS" class="st0" d="M267.5,230l0.7,0l3.5-0.7l0.4-0.2l0.8-0.8l0.5-0.7l5.1-0.1l1.1,0.6l0.1,0.6l0,0.4l0.8,0.5l0.8,0.1
		l0.4,0l0.3,0l0.5,0.1l0.5,0.3l0.3,0.8l0.1,0.4l0.5,0.2l1.6-0.2l0,0l0.1,0.3l1.1,0.4l0.2,0.5l1.3,2.3l0.1,0.5l-0.1,0.6l0.7,0.6
		l1,0.9l1.5,1.7l0.2,1.4l-0.7,1l-0.5,1.2l-0.8,1l-0.5,0.8l0,0l-0.8,0.4l-1.4,1l-1.7-0.6l-1.2-1.1l-0.4,0l-1.1,0.8l-0.4,0l-0.6-0.7
		l-0.2-0.7l-0.7-0.6l-0.9-0.3l-1.6-0.3h-2.3l-1.9,0.6l-0.3,0.1l-0.2,0.6l0.2,0.8l0.1,2.1l-1.2,0.7l-1,0l-1,0.1l-0.2,0.4l0,1.2
		l-0.1,0.4l-0.5,0.6l-1.2,1l-0.4,0.2l0,0.3l0.2,1.2l0.6,1.3l-0.7,2.3l-0.8,0.8l-0.5,0l-0.8-0.2l-0.9,0l-0.4,0l-0.5,1.6l0,0l-1.6,0.9
		l0,0l-0.6,0.6l-0.6-0.1l-0.6-0.1l-0.4-0.3l-0.8,0l0,0l0.5-1.6l0.6-1.2l0.4-0.1l0.6-0.1l0.5-0.2l0.6-0.4l0.3-0.7l0.1-0.3l0.1-0.5
		l0.2-1.3l-0.9-3.1l-0.2-2l-0.8-2.5l0.2-0.3l0.8,0l2.1-1.4l0.8-1.9l0.4-2.3l0.7-1.2l0.2-0.5l0.1-0.5l0-2.4l0.6-1.6l-1-1.6l-0.7-0.9
		l-0.5-1l0,0l0.4-0.4l0.4-0.2l0.5,0l0,0l0.8,0.3L267.5,230z M-360.4,147.7l-0.9,0.3l-0.5,0l-0.2,0l-0.9,0.4l-0.4,0.3l-0.2,0.1
		l-0.3-0.1l0-0.3l0.4-1.2l0.1-0.2l0.1-0.1l0.3-0.3l0.4-0.1l2.5,0.5l0,0.2l-0.1,0.2L-360.4,147.7z"/>
	<path id="CL-AR" class="st0" d="M232.5,336.6L232.5,336.6l0.4,0.1l0.5,0.2l1.4,0.8l4.4-3.7l0.3-0.4l0.1-0.4l0.1-0.5l-0.3-0.4
		l-0.6-0.3l-0.6-1.4l2-2.6l0.5-0.5l0.2-1.6l-0.2-0.4l-1-0.1l-0.4-0.4l1.5-1.6l2.3-0.3l0.7,0.3l0.7,0.4l0.6,0.3l2.3,0.5l1.4,0l1,1
		l0.5,1l1,1.3l0.8,0.4l0.3,0.1l0.6,0.1l0.6,0.1l0.4,0.2l1.4,1l0.2,0.4l0.5,0.6l0.3,0.2l2.5,0.4l2.1-0.2l0.5-0.1l0.6,0.2l0.5,0.7v0.7
		l-0.1,0.6l0,0.6l0.1,0.4l0.3,1.1l0.2,0.4l0.6,0.4l0.3-0.5l0.2-0.5l0.3-0.3l1.5-0.6l1.1-0.5l0.3-0.2l0.3-0.6l1.7-0.3l3.8-0.1
		l1.1,0.2l0,0l0,0.8l-0.2,1.3l0.2,1l0.5,2.4l0.3,0.6l0.7,0.6l0.4,0.2l0.6,0.4l0.3,0.6l-0.1,0.6l-0.5,1.9l-1,0.9l-0.4,0.1l-0.8,0
		l-0.5-0.1l-0.5,0.1l-0.7,0.3l-2.3,1.2l-1.6,0.8l-0.4,0.2l-0.5,0.4l-0.3,0.4l-0.1,0.5l-0.1,1l0,0.5l0.2,0.5l0.2,1.2l0.2,2l-0.3,1.6
		l-0.8,1.9l-0.6,2.3l-0.1,0.7l-0.2,0.3l-1.5,0.1l-0.4-0.2l-0.7-0.8l-0.3,0l0,0l0-0.4l-0.1-0.5l-0.2-0.4l-0.3,0l-1.1,0l-0.9-0.6
		l-0.5-0.4l-0.5-0.3l-0.4-0.1l-2.6-0.2l-0.4,0.1l-0.4,0.2l-0.5,0.4l-0.3,0.3l-0.4,0.2l-1.6,0.5l-0.6-0.1l-0.8-0.3l-2.4-0.7l-0.5,0
		l-1.2,0.2l-0.5,0l-0.5,0l-0.5-0.1l-0.4-0.3l-0.5-0.5l-0.5-0.8l-0.2-1.1l-0.4-0.3l-2.4,0l-0.8,0.9l-0.3,0.5l-0.4,0.4l-0.5,0.2
		l-0.5,0l-0.5,0l-0.4-0.1l-0.6-0.1l0,0l0.4-0.6l-0.1-2l-0.9-2.8l-2.9-7.2l-1-2.8l-0.4-2.2l0-0.6l0.3-1.1L232.5,336.6z"/>
	<path id="CL-BI" class="st0" d="M244.5,294.6l1.9,0.7l0.3,0.2l0.1,0.6l2.4,1.8l3.2,1.4l0.4,0.1l2,0l1.2-1.1l0-0.4l0.1-0.5l1.3,1.2
		l0.2,0.4l0.1,0.3l0.3,0.2l0.9,0.2l0.4,0l0.4-0.1l0.4-0.1l1.1,0.2l0.4,0.8l0.2,0.4l0.4,0.3l0.6,0.3l1,0.4l1.4,0.4l1.8,1.3l0.3,0.3
		l1.6,0.8l0.7,0.1l0.5-0.5l0-0.4l0.1-0.5l1.3-1.4l0.3-0.2l0.4,0l0.6,0.3l0.1,0.5l0.2,0.6l0.5,0.5l0.1,0.1l0,0l-0.3,0.1l-0.3,1.1
		l-1.4,3.4l-0.8,1.8l0.6,2.3l0.6,2.5l-0.3,1.4l-0.3,0.8l-0.6,0.6l-0.2,0.6l0.5,1.4l0.3,0.5l0.5,0.5l0.2,0.4l-0.2,2.3l-0.6,0.4
		l-0.3,0.3l-0.1,0.6l0,0.7l0.3,0.9l0.4,0.8l0.2,0.8l0.5,0.8l1.6,3.4l0,0.7l0,0l-1.1-0.2l-3.8,0.1l-1.7,0.3l-0.3,0.6l-0.3,0.2
		l-1.1,0.5l-1.5,0.6l-0.3,0.3l-0.2,0.5l-0.3,0.5l-0.6-0.4l-0.2-0.4l-0.3-1.1l-0.1-0.4l0-0.6l0.1-0.6V332l-0.5-0.7l-0.6-0.2l-0.5,0.1
		l-2.1,0.2l-2.5-0.4l-0.3-0.2l-0.5-0.6l-0.2-0.4l-1.4-1l-0.4-0.2l-0.6-0.1l-0.6-0.1l-0.3-0.1l-0.8-0.4l-1-1.3l-0.5-1l-1-1l-1.4,0
		l-2.3-0.5l-0.6-0.3l-0.7-0.4l-0.7-0.3l-2.3,0.3l-1.5,1.6l0.4,0.4l1,0.1l0.2,0.4l-0.2,1.6l-0.5,0.5l-2,2.6l0.6,1.4l0.6,0.3l0.3,0.4
		l-0.1,0.5l-0.1,0.4l-0.3,0.4l-4.4,3.7l-1.4-0.8l-0.5-0.2l-0.3-0.1l-0.1,0l0,0l-0.3-0.9l0.3-0.5l0.3-0.3l0.2-0.4l0.3-2.7l-0.2-0.7
		l-0.4-0.9l-0.7-1.5l-1.2-1.7l-1-1l-0.3-2.2l0.2-0.5l0.6-0.7l0.5-0.4l0.2-0.7l-0.1-0.7l-0.3-0.6l-0.4-0.4l-0.4-0.3l-0.2-0.3l0.6-2.6
		l0.2-0.4l0.7-0.4l0.7,0.7l0.4,0.2l1.3,0.5l0.7,0l0.3,0l0.4-0.1l0.9-0.2l0.7-0.3l0.4-0.3l0.4-0.5l0.2-0.5l0.4-1.4l0.3-3.2l0.3-3.4
		l0.6,0.2l0.4,0.3l0.5,0.1h0.4l0.3-0.1l0.2-0.3l0.3-1.3l0.6-2l0.7-1.7l0.7-1.6l0.3-3.6l0.3-2.6L244.5,294.6z"/>
	<path id="CL-LI" class="st0" d="M263.3,259.1l1.6,0.6l2.7-0.1l1,1.7l2.1,0.8l1.4,1.7l0,0l1.6,0l1.4-0.3l-0.1-0.7l0.1-0.4l2.2-2.2
		l1.4-0.7l0.5,0.1l1.2-0.1l0.7-0.3l1.9-0.7h0.6l0.6,0.2l0.4,0.3l0.7,1.9l-0.2,0.9l1.2,0.3l0.4-0.1l0.5-0.3l0.5,0l0.3,0.2l0.2,0.7
		l-0.1,1.1l0.1,0.4l0.5,0.5l0.8,0.3l0.4,0.3l0.1,0.3l0,0.4l0,0l-0.1,0.2v1l0.1,0.8l-1.7,2.3l-1.4,2.2l-1.1,3.3l-1,2.5l0,0l-0.1,0
		l-1-0.1l-3-0.3l-1.9-1.2l-0.7-0.6l-0.3-0.2l-4.7-1.2l-0.6-0.1h-0.5l-3,0.2l-1.4,1l0.1,0.4l0.1,0.6l-2.5-0.4l-2.5-0.1l-1.7-0.4
		l-2.3-0.8l-0.6-0.7l-1-1l-0.3-0.2l-0.5-0.2l0,0l0.2-0.7l0.2-2.3l-0.1-1l0-0.7l0.3-0.5l0.6-0.3l0.2-0.4l0-0.9l-0.1-1.3l-0.3-0.4
		l-0.1-0.3l0.1-0.6l2-3.1l0.5-0.5l0,0l0.8,0l0.4,0.3l0.6,0.1l0.6,0.1l0.6-0.6l0,0L263.3,259.1z"/>
	<path id="CL-LL" class="st0" d="M213.7,435.7l-0.3,0.3l-0.4,0l-0.4,0l-0.2,0l-0.3,0.1l-0.2,0.1l-0.6,0.4l-0.1,0l-0.3-0.1l-0.6-0.8
		l-0.1-0.2l-0.1-0.2l-0.1-0.2l0-0.3l1.4-0.6l0.2,0l1.4,0.6l0.2,0.1l0.4,0.4L213.7,435.7z M233.9,414.8l0,0.7l-0.3,0l-0.2-0.5
		l-0.1-0.2l-0.1-0.2l-0.3-0.2l-1.6-0.7l-0.2-0.1l-0.5-0.1l-0.2-0.1l-0.5-1.1l0-0.2l0.3-0.1l0.4,0l0.6,0l0.4,0.1l0.3,0.2L233.9,414.8
		z M226.1,401.4l-0.3,0.4h-0.5l-0.4-0.3l-0.3-0.1l-0.3,0.4l0.6,0.5l1.5,0.5l0.4-0.3l0.7-0.4l1.7-0.9l1.6-0.2l0.5,0l1.2,0.7l-0.4,2.5
		l1.3,1.7l-0.3,0.6l-0.5,0.1l-0.1,0.4l0.2,0.5l1.1,0.6l0.4,0.1l0.4,1.1l-0.2,0.7l-0.2,0.4l-1.7,0.4l-0.9-0.1l-0.4,0l-1.1,0.5
		l-0.4,0.2l-0.3,0.4l-0.1,1.6l0.5,0.5l0.4,0.2l0.3,0.3l-1.8,0.6l-0.9-0.7l0.3-0.8l-0.5,0.1l-0.4,0.8l0.2,1.8l3.1,2.7l0.8,0.2
		l0.9,0.6l0.3,0.3l0.2,1l-0.1,0.4l-1.3,0.2l-0.6,0l-0.5,0.3l-0.2,0.8l0.5,0.5l0.9,0.6l0.1,0.3l0.6,0.9l0.4,0.5l0.2,0.6l-0.4,0.3
		l-3.7-0.3l-0.7,0.2l0.2,1.6l0.4,0.4l0.5,0.3l0.3,0.7l-0.3,1.7l-0.3,0.1l-2.2,0.4l-0.6-0.4l-0.4-0.4l-0.4-0.1l-1.5-0.1l-1.7-0.2
		l-2.1-0.5l-1.5-0.7l-0.3-0.2l-0.3-0.4l1.2-2.7l1.6-1.6l-0.2-0.6l0.5-0.4l0.7-1.6l0.5-4.6l-0.1-1.4l-0.3-1l-0.3-0.2l-0.4-0.3
		l0.3-1.6l0.3-3.5l0.2-0.3l0.3-0.4l0.3-0.4l0.8-0.6l0.5-1.5l0.6-2.9l-0.6-1.1l-0.2-0.4l0-0.4l0.5-0.8l1.9,0.1L226.1,401.4z
		 M228.4,372.2l5,0.4l1,1.4l1.6,0.3l2.6-1.7l2.6,0.8l1.6,2.5l2.3,1.4l2.9,2.2l3.2,1.1l1.9-2l1.3-1.7l2.6-0.3l3,0.4l0,0l-0.1,0.8
		l0,0.5l-0.3,0.8l-0.3,0.4l-0.3,0.3l-0.5,0.4l-0.3,0.5l0.6,1.5l1.1,2l0.2,0.8l-0.3,1l0.3,0.9l-0.3,3.4l-0.1,0.5l-0.3,0.5l-0.3,1.2
		l0.1,0.6l0.4,0.9l0.3,2.2l-0.7,1l-0.4,0.4v0.5l1.1,2.2l1,1.8l0.2,0.5l0.2,1.1l0.1,1l0.5,0.6l0.1,1.3l-0.8,0.7l-2.2,0.9l-0.5-0.1
		l-0.2-0.5l-0.2-0.3l-0.5-0.1l-0.4,0.2l-0.3,0.3l-1.5,2.6l0.3,0.6l0.9,0.6l0.2,0.4l-1.1,3l-0.2,0.4l-0.2,0.4l-0.1,0.4l0.2,1.5l0.3,1
		l0.1,0.8l0.1,1.8l0,0.5l-0.2,0.6l-0.2,0.4l-0.1,0.4l-0.1,1l0.3,0.6l0.7,1l0.4,0.3l0.9,0.3l0.7,0l0.5,0l1,0.1l0.5,0.1l1.6,0.8l0.1,2
		l-0.1,0.4l-0.3,0.2l-0.6-0.1l-1.7,0.5l-0.6,1.2l-0.1,1.3l1.4,0.9l2.4,2l0.2,1.3l-0.2,0.5l-1,0.6l-0.3,0.1l-0.3,0.2v0.6l0.9,1.1
		l1,0.9l0,0l-1.2-0.5l-0.6,0l-2.3,1l-0.2,0.8l-2.3,0.2l-0.1-0.8l-0.3-0.5l-0.5-0.6l-0.5-0.3l-0.7-0.1l-0.3-0.1l-1.3-1.8l-0.1-0.8
		l-0.8-0.3l-0.5,0.3l-0.7,0.6l-0.5,0.7l-0.2,0.8l-3.2-0.5l-1-0.2l-0.3-0.2l-1.1,0l0,0v-0.8l-0.3,0.7l0,0l-0.3,0l-0.4-0.1l-0.6-0.6
		l-0.8,0.1l-0.7,0.4l0,0l-0.1-0.7l0.1-2.3l-1.1-2.3l-0.2-0.5l0.6-2.5l0.3-0.4l0.6-0.4l0.5-0.3l0.4-0.2l0.3-0.1l0.6-0.2l0-1.4
		l-0.3-0.8l0.1-0.5l0.7-1.1l0.6-0.6l0.5,0l1.2,0.7l0-2.6l-0.5-0.5l-0.5-0.3l-0.5-0.4l-0.3-0.6l-0.2-1.1l0-1l0.1-2.7l0.6-1.3l0.4-0.1
		l1.5,0.1l0.5,0.1l0.3,0.4l1.3,0.7l0.5,0.1l0.2-0.2l-0.4-0.6l-0.8-0.2l-0.5-0.2L246,414l-2.7-3.6l0.8-0.8l0.8-0.5l2.4-0.7l0.5,0.3
		l0.5,0.8l0,0.4l1.5,3.8l0.3,0.2l0.2-0.4l-0.1-1.4l-0.6-2.5l-0.2-0.8l-0.2-1.4l0-0.5l0.1-0.7l0.1-0.5l0.2-0.5l0-0.6l-0.3-0.2l-0.7,0
		l-0.6,0.6l-1.1,0.5l-2.1-0.3l-1.3-0.6l-0.7-0.8l0.1-0.5l0.9-1.2l2.5-2.2l0.7,0l0.6,0.1l1.7-0.4l1.2-0.5l0.9-0.7l0.3-0.3l0.4-3.8
		l-0.6,0.2l-0.6,3.4l-0.4,0.6l-1.2,0.5l-1.7,0.5l-0.6,0l-0.4-0.1l-0.7-0.5l-0.5-1.3l-0.6-0.7l-1.1-1.1l-0.6-0.3l-1.5-0.3l-1.3,0.3
		l-0.5,0.2l-1,1.4l0.2,0.8l0.3,0.3l0.2,1.1l-1.2,1l-1.1,0.7l-0.6,0.1l-1.2-0.2l-0.5-0.1l-1.1,0l-0.3,0.1l-0.8,0.3l-0.4,0.1l-0.3,0
		l-1.1-0.6l-2-0.3l-0.9,0l0.3-1.5l0.7-1l0.3-0.2l0.5,0l0.5,0.1l0.6-0.2l1.1-1.7l-0.5,0.4l-0.3,0.6l-0.3,0.4l-0.5,0.1l-2-0.2l-1-0.6
		l-1.5-1.6l0-0.7l0.3-0.6l-0.1-1.3l-0.2-0.7l-0.6-1.4l-0.5-0.6l-0.3-0.5l-0.3-1.8l-0.4-2.1l0.8-2l1.9-4.4l0.8-0.9l0.7-1.3l-0.1-0.7
		l-0.5-1L228.4,372.2z"/>
	<path id="CL-ML" class="st0" d="M273.7,303.7l-0.1-0.1l-0.5-0.5l-0.2-0.6l-0.1-0.5l-0.6-0.3l-0.4,0l-0.3,0.2l-1.3,1.4l-0.1,0.5
		l0,0.4l-0.5,0.5l-0.7-0.1l-1.6-0.8l-0.3-0.3l-1.8-1.3l-1.4-0.4l-1-0.4l-0.6-0.3l-0.4-0.3l-0.2-0.4l-0.4-0.8l-1.1-0.2l-0.4,0.1
		l-0.4,0.1l-0.4,0l-0.9-0.2l-0.3-0.2l-0.1-0.3l-0.2-0.4l-1.3-1.2l-0.1,0.5l0,0.4l-1.2,1.1l-2,0l-0.4-0.1l-3.2-1.4l-2.4-1.8l-0.1-0.6
		l-0.3-0.2l-1.9-0.7l0,0l0.3-0.2l0.8-0.7l1.8-1.6l0.2-0.4l0.1-0.6l0-0.6l-0.4-0.8l-0.7-1.5l0-0.5l0.4-0.4l0.7-0.3l1.1-0.8l1.1-2.3
		l0.6-1.4l0.2-0.4l0.7-0.7l0.5-0.3l0.6-0.3l0.9-0.8l0.3-0.6l0.2-0.8l0-0.5l0-0.6l0-0.5l0.1-0.9l0.9-1.7l0.4-0.3l0.3-0.4l0.4-1l0,0
		l0.5,0.2l0.3,0.2l1,1l0.6,0.7l2.3,0.8l1.7,0.4l2.5,0.1l2.5,0.4l-0.1-0.6l-0.1-0.4l1.4-1l3-0.2h0.5l0.6,0.1l4.7,1.2l0.3,0.2l0.7,0.6
		l1.9,1.2l3,0.3l1,0.1l0.1,0l0,0l0,0.1l0,0.7l0,0.6l0.1,0.4l-0.1,0.8l-0.3,0.4l-1.2,0.5l-0.5,0.1l-0.6,0l-0.4,0.1l-0.4,0.5l0,0.5
		l0.3,0.5l0.3,0.2l1.8,1l0.4,2.6l-0.1,1.7l-0.2,0.4l0.2,0.6l0.6,1.1l0.5,1.3l-0.5,0.4l-0.4,0.7l-0.2,0.4l0.1,1.4l0.2,1.8l-0.5,1.1
		l-0.2,0.3l-0.5,0.2l-0.6,0l-1.4,0.1l-1.9,1.9l-0.2,1.3l0.4,0.8l-0.2,0.4l-4.1,1.3l-0.5-0.1L273.7,303.7z"/>
	<path id="CL-AP" class="st0" d="M308,21.5h-2.5l-1.6,1.4l-0.3,1.7l-2.6,0.3l-2.6-1.7h-4.5l-2.6,1.7l-2.6,1.4l-2.7,0.1l0,0l0-0.6
		l0.2-0.4l0-0.6l-0.9-4.1L285,20l-0.2-2.9l0.2-0.9l0.5-2.1l-0.4-0.5l-0.4-0.4l-0.5-0.4l-0.2-0.1l0.3-0.2l0.4-0.2l0.6,0l1.3,0.1
		l0.8,0l0.4,0l0.8-0.1l2.4-0.8l0.5-0.3l1.5-1.4l0.4-0.4l0.8-1.4l0.4-0.8l0.1-0.5l-0.7-2.3l-0.2-0.3l-0.3-0.2l-0.2-0.3l0.1-0.6
		l0.2-0.4l0.3-0.4l0.7,0.1l1.4,0.1l3.1-2.3l0.2,1.9l1.8,1.4l0.3,0.3l0.5,0.8l0.2,0.4l0,1l0.1,0.5l0.2,0.4l0.2,0.3l2.6,0.7l1,0.1
		l0,0.4L305.8,9l-0.6,0.3l-0.3,0.3l-0.2,0.4l0.2,0.4l0.3,0.3l0.4,0.4l0.3,2.4l0.2,0.3l0.3,0.4l0.2,0.3l0.1,0.4l0,0.4l-0.1,0.8
		l0.1,0.8l0.1,0.7l0.4,1.3l0.8,1.5l0.3,0.5L308,21.5z"/>
	<path id="CL-LR" class="st0" d="M260.1,377.1l-3-0.4l-2.6,0.3l-1.3,1.7l-1.9,1.9l-3.2-1.1l-2.9-2.2l-2.3-1.4l-1.6-2.5l-2.6-0.8
		l-2.6,1.7l-1.6-0.3l-1-1.4l-5-0.4l0,0l0.3-1.7l1.1-1.2l-0.1-1.1l-0.2-0.5l-0.4-0.5l-0.2-0.4l0.3-0.5l0.2-0.2l3.1-1.3l1.4,0.2
		l0.4-0.6l0-2.2l1.2-2.7l0.3-0.4l0.6-1.3l0.5-1.5l-0.4-0.6l0,0l0.6,0.1l0.4,0.1l0.5,0l0.5,0l0.5-0.2l0.4-0.4l0.3-0.5l0.8-0.9l2.4,0
		l0.4,0.3l0.2,1.1l0.5,0.8l0.5,0.5l0.4,0.3l0.5,0.1l0.5,0l0.5,0l1.2-0.2l0.5,0l2.4,0.7l0.8,0.3l0.6,0.1l1.6-0.5l0.4-0.2l0.3-0.3
		l0.5-0.4l0.4-0.2l0.4-0.1l2.6,0.2l0.4,0.1l0.5,0.3l0.5,0.4l0.9,0.6l1.1,0l0.3,0l0.2,0.4l0.1,0.5l0,0.4l0,0l-0.1,0.1l-0.3,0.9
		l0.1,1.9l0.6,2.3l0.6,1.8l-0.5,1.8l-1.4,0.8l-0.7,0.5l-0.4,1.7l0.4,0.8l1.2,1l0.3-0.4l0.6,0.3l0.1,0.7l-0.6,1.3l-0.2,0.4l-0.3,0.1
		l-0.4-0.3l-0.3,0L260.1,377.1z"/>
</g>
</svg>
